<svg width="45" height="16" viewBox="0 0 45 16" fill="none" xmlns="http://www.w3.org/2000/svg">
<path d="M4.80273 10.0866C5.86985 10.0866 6.72084 9.20264 6.72084 7.89201C6.72084 6.9417 6.15351 5.87707 4.80273 5.87707C3.68574 5.87707 3.10178 6.84269 3.10178 8.00633C3.10178 9.33329 3.90186 10.0866 4.80273 10.0866ZM9.6219 11.3472C9.6219 14.8535 7.88875 15.9834 4.38607 15.9834C3.25682 15.9864 2.13504 15.8036 1.0673 15.4424L1.21796 13.1162C2.13442 13.5592 2.90228 13.8215 4.15228 13.8215C5.88647 13.8215 6.82059 13.0182 6.82059 11.3472V10.8879H6.78734C6.07039 11.8872 5.06977 12.3465 3.86861 12.3465C1.48396 12.3475 0.000183105 10.5776 0.000183105 8.05533C0.000183105 5.51573 1.21796 3.61511 3.91849 3.61511C5.20277 3.61511 6.23664 4.30411 6.87047 5.35037H6.90372V3.81212H9.6219V11.3472Z" fill="#3680C3"/>
<path d="M21.6564 12.2612H24.9668L28.0809 3.8493H25.1882L23.4301 9.84105H23.3989L21.6564 3.8493H18.535L21.6564 12.2612Z" fill="#50B848"/>
<path d="M16.6185 8.03953C16.6185 6.76156 16.0522 5.63059 14.6672 5.63059C13.2821 5.63059 12.7168 6.76156 12.7168 8.03953C12.7168 9.30117 13.2831 10.4311 14.6672 10.4311C16.0512 10.4311 16.6185 9.30525 16.6185 8.03953ZM9.6142 8.03953C9.6142 5.20494 11.7962 3.56665 14.6672 3.56665C17.5381 3.56665 19.7201 5.19983 19.7201 8.03953C19.7201 10.8578 17.5381 12.4951 14.6672 12.4951C11.7962 12.4951 9.6142 10.8619 9.6142 8.03953Z" fill="#FDB913"/>
<path d="M28.6121 11.0974C28.6121 11.3742 28.5286 11.6448 28.372 11.8749C28.2155 12.1051 27.993 12.2844 27.7327 12.3903C27.4724 12.4963 27.186 12.524 26.9096 12.47C26.6333 12.416 26.3795 12.2827 26.1802 12.087C25.981 11.8913 25.8453 11.6419 25.7904 11.3704C25.7354 11.099 25.7636 10.8176 25.8714 10.5619C25.9793 10.3062 26.1618 10.0876 26.3961 9.93385C26.6304 9.78007 26.9058 9.698 27.1876 9.698C27.5654 9.698 27.9277 9.84544 28.1949 10.1079C28.462 10.3703 28.6121 10.7263 28.6121 11.0974Z" fill="#3680C3"/>
<path d="M33.7219 5.83482C32.6205 5.83482 31.8869 6.78513 31.8869 8.06309C31.8869 9.30839 32.7182 10.2424 33.7219 10.2424C34.8566 10.2424 35.5403 9.30839 35.5403 7.94877C35.5361 6.81779 34.8898 5.83482 33.7219 5.83482ZM28.8861 0.0166016H31.8994V4.86716H31.9326C32.6995 3.91685 33.7177 3.57286 34.9189 3.57286C37.3212 3.57286 38.6387 5.81848 38.6387 7.88242C38.6387 10.4067 37.2537 12.5043 34.6685 12.5043C33.2834 12.5043 32.0656 11.7337 31.6822 10.7834H31.649V12.3073H28.8861V0.0166016Z" fill="#3680C3"/>
<path d="M44.8482 6.13013C44.5158 6.0464 44.1726 6.012 43.8299 6.02806C42.4292 6.02806 41.6478 7.02736 41.6478 8.69934V12.3046H38.645V3.77018H41.3798V5.34314H41.413C41.9326 4.26116 42.6817 3.57318 43.9826 3.57318C44.3239 3.58047 44.6641 3.6146 44.9999 3.67526L44.8482 6.13013Z" fill="#FDB913"/>
</svg>
