<svg width="486" height="296" viewBox="0 0 486 296" fill="none" xmlns="http://www.w3.org/2000/svg">
<path fill-rule="evenodd" clip-rule="evenodd" d="M372.863 28.3611C372.863 29.2228 372.863 30.0845 372.863 30.9462C371.965 35.0636 370.53 39.0849 368.555 43.0099C367.703 44.1258 366.842 45.2744 365.97 46.4566C357.13 54.8409 346.79 57.2821 334.949 53.7811C331.143 52.1154 327.696 49.9612 324.608 47.3183C324.236 46.2757 323.661 45.414 322.885 44.7333C315.875 33.1476 316.019 21.6584 323.316 10.2655C334.313 -1.19133 346.807 -3.05836 360.799 4.66448C368.614 10.6729 372.636 18.5717 372.863 28.3611Z" fill="#FFCD07"/>
<path fill-rule="evenodd" clip-rule="evenodd" d="M48.8662 39.5632C47.7173 39.5632 47.1428 40.1379 47.1428 41.2866C36.8935 45.6571 29.1382 43.072 23.877 33.5313C22.367 30.3195 21.7926 26.8727 22.1537 23.191C24.0608 14.2555 29.6619 9.3725 38.9567 8.54218C53.6259 11.4643 58.5085 20.0812 53.6055 34.393C52.1412 36.2854 50.5614 38.0088 48.8662 39.5632Z" fill="#FFCD07"/>
<path fill-rule="evenodd" clip-rule="evenodd" d="M174.674 59.3821C173.812 59.669 173.237 60.2438 172.95 61.1055C161.586 70.9822 149.235 72.2748 135.897 64.9831C122.816 53.3347 120.662 39.9785 129.435 24.9143C141.768 11.8778 155.412 10.2981 170.365 20.175C182.571 31.9108 184.007 44.9797 174.674 59.3821Z" fill="#FB5A47"/>
<path fill-rule="evenodd" clip-rule="evenodd" d="M409.916 35.2546C409.916 34.393 409.916 33.5313 409.916 32.6696C415.061 19.8075 423.965 16.5044 436.629 22.7601C444.272 29.5489 445.564 37.4477 440.506 46.4567C431.704 55.3132 422.656 55.601 413.363 47.3184C410.698 43.7156 409.548 39.695 409.916 35.2546Z" fill="#2491FF"/>
<path fill-rule="evenodd" clip-rule="evenodd" d="M372.863 28.3611C385.148 30.3583 397.498 31.7945 409.916 32.6696C409.916 33.5313 409.916 34.393 409.916 35.2547C397.546 33.8878 385.194 32.4516 372.863 30.9462C372.863 30.0845 372.863 29.2228 372.863 28.3611Z" fill="#A1AAAF"/>
<path fill-rule="evenodd" clip-rule="evenodd" d="M22.1536 23.191C21.7926 26.8727 22.367 30.3195 23.877 33.5313C23.0512 33.1411 22.3331 32.5666 21.7228 31.8079C21.027 28.769 21.1706 25.8966 22.1536 23.191Z" fill="#FDE0BE"/>
<path fill-rule="evenodd" clip-rule="evenodd" d="M298.757 67.999C299.044 68.5737 299.332 69.1476 299.619 69.7224C303.25 75.9249 305.978 82.5306 307.805 89.5414C308.236 94.9916 308.379 100.449 308.236 105.914C308.236 106.775 308.236 107.637 308.236 108.499C307.281 119.455 303.548 129.365 297.034 138.227C297.513 138.557 297.8 138.988 297.896 139.52C297.041 139.371 296.467 139.659 296.172 140.381C294.496 140.842 293.634 141.991 293.587 143.828C291.935 145.042 290.356 146.479 288.848 148.137C288.608 151.32 288.608 154.479 288.848 157.615C285.084 154.14 281.637 150.406 278.508 146.413C278.178 146.892 277.747 147.179 277.215 147.275C276.64 145.265 276.066 143.253 275.492 141.243C274.343 141.243 273.194 141.243 272.045 141.243C272.139 144.172 273.288 146.47 275.492 148.137C275.396 148.668 275.109 149.099 274.63 149.429C275.973 151.197 277.122 153.065 278.077 155.03C252.856 167.515 229.302 164.93 207.418 147.275C207.123 146.553 206.549 146.265 205.695 146.413C201.694 141.3 198.103 135.843 194.923 130.041C191.305 122.699 189.151 114.944 188.461 106.775C187.348 106.979 186.486 106.693 185.876 105.914C187.322 106.099 188.184 105.524 188.461 104.19C188.125 93.7266 190.424 83.9602 195.354 74.8926C196.503 74.0309 196.503 73.1692 195.354 72.3075C200.38 66.8193 205.551 61.2183 210.865 55.5044C229.143 42.3119 249.105 39.296 270.752 46.4566C275.856 49.3666 280.883 52.3825 285.832 55.5044C290.05 59.8681 294.359 64.0326 298.757 67.999Z" fill="#2491FF"/>
<path fill-rule="evenodd" clip-rule="evenodd" d="M48.8662 39.5632C54.886 48.4912 61.4926 56.8203 68.6851 64.5523C67.5692 65.4037 66.4206 66.2654 65.2384 67.1374C65.3667 66.2309 65.2237 65.3692 64.8075 64.5523C58.7334 56.903 52.8448 49.1478 47.1428 41.2866C47.1428 40.1379 47.7173 39.5632 48.8662 39.5632Z" fill="#A1AAB0"/>
<path fill-rule="evenodd" clip-rule="evenodd" d="M365.97 46.4567C384.492 59.0219 403.162 71.3726 421.98 83.5095C420.248 87.7111 418.667 92.0196 417.24 96.4349C416.812 98.715 416.668 101.013 416.81 103.328C380.624 104.357 344.432 105.219 308.236 105.914C308.379 100.449 308.236 94.9916 307.805 89.5414C305.978 82.5306 303.249 75.9249 299.619 69.7224C307.949 62.2541 316.278 54.7867 324.608 47.3184C327.696 49.9612 331.143 52.1154 334.949 53.7811C346.79 57.2821 357.13 54.8409 365.97 46.4567Z" fill="#FDFEFE"/>
<path fill-rule="evenodd" clip-rule="evenodd" d="M368.555 43.0099C368.408 44.1491 368.695 45.1547 369.416 46.0259C387.431 58.0396 405.24 70.2472 422.841 82.6479C422.267 82.6479 421.98 82.9348 421.98 83.5096C403.162 71.3726 384.492 59.0219 365.97 46.4567C366.842 45.2745 367.703 44.1258 368.555 43.0099Z" fill="#A1AAB3"/>
<path fill-rule="evenodd" clip-rule="evenodd" d="M118.663 97.2967C117.884 97.9076 117.597 98.7693 117.802 99.8818C114.464 110.112 107.857 117.293 97.9827 121.424C95.7708 121.615 93.7596 122.189 91.9509 123.148C91.0892 123.148 90.2275 123.148 89.3658 123.148C85.6321 123.148 81.8975 123.148 78.1638 123.148C63.6382 118.833 55.5951 109.067 54.0363 93.8499C54.0363 91.2648 54.0363 88.6798 54.0363 86.0947C55.6839 78.4437 59.4185 72.124 65.2384 67.1374C66.4206 66.2654 67.5692 65.4037 68.6851 64.5523C84.4714 57.0177 98.6893 59.3158 111.339 71.4459C117.258 79.0331 119.7 87.65 118.663 97.2967Z" fill="#FB5A47"/>
<path fill-rule="evenodd" clip-rule="evenodd" d="M322.885 44.7333C323.661 45.4141 324.236 46.2758 324.608 47.3184C316.278 54.7867 307.949 62.2542 299.619 69.7225C299.332 69.1477 299.044 68.5738 298.757 67.9991C307.386 60.8048 315.43 53.0495 322.885 44.7333Z" fill="#A1ABB1"/>
<path fill-rule="evenodd" clip-rule="evenodd" d="M465.064 134.349C463.628 134.924 462.192 135.498 460.756 136.073C454.884 136.548 449.139 137.123 443.522 137.796C439.547 135.795 435.526 133.783 431.458 131.764C423.18 124.684 418.297 115.779 416.81 105.052C416.81 104.477 416.81 103.903 416.81 103.328C416.668 101.013 416.812 98.715 417.24 96.4349C418.667 92.0196 420.248 87.7111 421.98 83.5095C421.98 82.9347 422.267 82.6478 422.841 82.6478C434.145 69.2631 448.22 65.3855 465.064 71.0149C481.548 78.9218 488.297 91.9903 485.314 110.222C482.07 121.353 475.32 129.396 465.064 134.349Z" fill="#FB5A47"/>
<path fill-rule="evenodd" clip-rule="evenodd" d="M37.6642 88.6798C37.6151 89.6354 37.3279 90.4971 36.8025 91.2649C33.1226 104.347 24.5057 109.373 10.9516 106.345C-0.551284 98.566 -2.99272 88.6565 3.62724 76.6161C9.2604 70.9789 16.0104 69.1116 23.8771 71.015C32.0748 74.0387 36.6705 79.9267 37.6642 88.6798Z" fill="#2491FF"/>
<path fill-rule="evenodd" clip-rule="evenodd" d="M174.674 59.3821C181.271 64.1188 188.164 68.4273 195.354 72.3075C196.503 73.1692 196.503 74.0309 195.354 74.8926C187.658 70.6384 180.19 66.043 172.95 61.1055C173.237 60.2438 173.812 59.669 174.674 59.3821Z" fill="#A0ABB2"/>
<path fill-rule="evenodd" clip-rule="evenodd" d="M54.0363 86.0947C54.0363 88.6797 54.0363 91.2648 54.0363 93.8499C53.2574 93.239 52.9702 92.3773 53.1746 91.2648C47.7173 91.2648 42.2598 91.2648 36.8025 91.2648C37.3279 90.4971 37.6151 89.6354 37.6641 88.6797C42.8343 88.6797 48.0045 88.6797 53.1746 88.6797C52.9702 87.5673 53.2574 86.7056 54.0363 86.0947Z" fill="#A7AEB6"/>
<path fill-rule="evenodd" clip-rule="evenodd" d="M118.663 97.2967C141.756 100.037 165.022 102.335 188.461 104.19C188.184 105.524 187.322 106.099 185.876 105.914C163.137 104.415 140.446 102.405 117.802 99.8818C117.597 98.7693 117.884 97.9076 118.663 97.2967Z" fill="#A4A8AD"/>
<path fill-rule="evenodd" clip-rule="evenodd" d="M416.81 103.328C416.81 103.903 416.81 104.477 416.81 105.052C380.612 105.964 344.421 107.113 308.236 108.499C308.236 107.637 308.236 106.775 308.236 105.914C344.432 105.219 380.624 104.357 416.81 103.328Z" fill="#A1ABB1"/>
<path fill-rule="evenodd" clip-rule="evenodd" d="M416.81 105.052C418.297 115.779 423.18 124.684 431.458 131.764C421.286 135.446 417.408 142.626 419.826 153.307C421.588 154.636 422.88 154.349 423.703 152.445C425.622 153.221 426.484 154.657 426.288 156.754C425.176 156.549 424.314 156.836 423.703 157.615C419.914 158.29 416.611 160.013 413.794 162.785C411.511 171.342 409.5 179.959 407.762 188.636C407.437 189.879 406.719 190.74 405.608 191.221C405.31 170.242 394.682 159.04 373.725 157.615C363.253 158.541 355.211 163.424 349.597 172.264C339.927 167.158 331.023 161.127 322.885 154.168C325.644 150.24 328.517 146.362 331.502 142.536C327.48 138.514 323.46 134.493 319.438 130.472C316.317 129.519 313.157 129.232 309.96 129.61C308.836 130.303 308.261 131.309 308.236 132.626C308.801 134.309 309.088 136.032 309.098 137.796C309.091 140.42 308.804 143.005 308.236 145.552C304.804 143.564 301.357 141.554 297.896 139.52C297.8 138.988 297.513 138.557 297.034 138.227C303.548 129.365 307.281 119.455 308.236 108.499C344.421 107.113 380.612 105.964 416.81 105.052Z" fill="#FDFDFC"/>
<path fill-rule="evenodd" clip-rule="evenodd" d="M78.1638 123.147C81.8975 123.147 85.6321 123.147 89.3658 123.147C86.9643 123.989 84.3792 124.276 81.6106 124.009C81.8854 128.2 81.5985 132.221 80.7489 136.073C80.7489 133.201 80.7489 130.328 80.7489 127.456C79.6002 127.456 78.4507 127.456 77.3021 127.456C77.4132 125.977 77.7002 124.541 78.1638 123.147Z" fill="#D0C1C0"/>
<path fill-rule="evenodd" clip-rule="evenodd" d="M52.3129 140.381C52.4594 139.242 52.1721 138.237 51.4512 137.365C47.5689 135.675 43.5476 135.1 39.3875 135.642C38.8429 138.46 38.2685 141.189 37.6641 143.828C31.6897 137.022 31.9769 130.56 38.5258 124.44C41.2472 123.963 43.976 123.532 46.7119 123.147C52.8606 123.266 56.7386 126.282 58.3448 132.195C58.2371 133.597 57.8062 134.89 57.0523 136.073C55.1288 137.23 53.549 138.667 52.3129 140.381Z" fill="#0E2A4A"/>
<path fill-rule="evenodd" clip-rule="evenodd" d="M322.885 154.168C321.507 154.399 320.358 154.112 319.438 153.307C320.749 150.751 321.754 148.166 322.454 145.552C319.141 143.035 315.694 140.737 312.114 138.658C311.449 138.783 310.874 139.07 310.39 139.52C310.151 138.73 309.72 138.156 309.098 137.796C309.088 136.032 308.801 134.309 308.236 132.626C308.261 131.309 308.836 130.303 309.96 129.61C313.157 129.232 316.317 129.519 319.438 130.472C323.46 134.493 327.48 138.514 331.502 142.536C328.517 146.362 325.644 150.24 322.885 154.168Z" fill="#0C2A4A"/>
<path fill-rule="evenodd" clip-rule="evenodd" d="M157.44 154.168C156.578 154.168 155.716 154.168 154.855 154.168C154.132 153.874 153.845 153.3 153.993 152.445C156.401 146.756 154.678 143.022 148.823 141.243C146.39 141.794 144.236 142.943 142.36 144.69C141.93 147.837 141.787 150.996 141.929 154.168C141.929 154.743 141.642 155.03 141.067 155.03C139.779 155.452 138.63 156.025 137.621 156.754C132.952 155.121 129.074 152.249 125.988 148.137C125.566 147.022 125.422 145.873 125.557 144.69C127.687 143.43 129.985 142.425 132.451 141.674C134.704 133.936 139.874 130.489 147.961 131.334C151.243 134.639 154.834 137.655 158.732 140.381C159.307 143.253 161.03 144.977 163.902 145.552C164.331 147.542 164.474 149.552 164.333 151.583C162.044 152.44 159.746 153.302 157.44 154.168Z" fill="#0B2B4C"/>
<path fill-rule="evenodd" clip-rule="evenodd" d="M431.458 131.764C435.526 133.783 439.547 135.795 443.522 137.796C444.969 143.387 443.963 148.557 440.506 153.307C438.475 155.156 436.321 155.443 434.043 154.168C435.626 151.567 436.057 148.695 435.336 145.552C432.442 143.089 429.426 140.791 426.288 138.658C421.751 142.556 420.889 147.152 423.703 152.445C422.88 154.349 421.588 154.636 419.825 153.307C417.408 142.626 421.286 135.446 431.458 131.764Z" fill="#112C4F"/>
<path fill-rule="evenodd" clip-rule="evenodd" d="M460.756 136.073C457.032 142.368 453.298 148.687 449.554 155.03C443.866 157.034 438.121 157.895 432.32 157.615C431.02 155.737 431.451 154.3 433.613 153.307C433.956 153.503 434.099 153.791 434.043 154.168C436.321 155.443 438.475 155.156 440.506 153.307C443.963 148.557 444.969 143.387 443.522 137.796C449.139 137.123 454.884 136.549 460.756 136.073Z" fill="#F5F8F9"/>
<path fill-rule="evenodd" clip-rule="evenodd" d="M52.3129 140.381C51.3487 143.937 49.6253 147.097 47.1428 149.86C47.1428 150.435 47.1428 151.009 47.1428 151.583C45.4194 151.583 43.696 151.583 41.9726 151.583C41.9726 151.009 41.9726 150.435 41.9726 149.86C40.8924 147.626 39.4563 145.614 37.6641 143.828C38.2685 141.189 38.8429 138.46 39.3875 135.642C43.5476 135.1 47.5689 135.675 51.4513 137.365C52.1721 138.237 52.4594 139.242 52.3129 140.381Z" fill="#F2C5B2"/>
<path fill-rule="evenodd" clip-rule="evenodd" d="M97.9827 121.424C106.403 129.413 114.732 137.599 122.972 145.982C124.082 146.188 124.943 145.757 125.557 144.69C125.422 145.873 125.566 147.022 125.988 148.137C129.074 152.249 132.952 155.121 137.621 156.754C138.03 160.036 139.753 162.333 142.791 163.647C142.504 164.509 141.929 165.084 141.067 165.37C139.057 163.647 137.046 161.924 135.036 160.2C122.348 148.044 109.423 135.837 96.2594 123.578C94.8513 123.153 93.4149 123.01 91.9509 123.147C93.7596 122.189 95.7708 121.615 97.9827 121.424Z" fill="#A2A9AF"/>
<path fill-rule="evenodd" clip-rule="evenodd" d="M77.3021 127.456C78.4507 127.456 79.6002 127.456 80.7489 127.456C80.7489 130.328 80.7489 133.201 80.7489 136.073C80.7489 141.243 80.7489 146.413 80.7489 151.583C80.1758 153.194 79.6019 154.917 79.0255 156.754C69.1298 152.932 60.6559 154.942 53.6055 162.785C52.9534 161.221 52.2352 159.786 51.4512 158.477C51.4314 156.386 51.0006 154.375 50.1587 152.445C49.2873 151.724 48.282 151.437 47.1428 151.583C47.1428 151.009 47.1428 150.435 47.1428 149.86C48.783 150.598 50.5064 151.172 52.3129 151.583C58.8454 149.92 65.4521 148.628 72.1319 147.706C74.0905 140.947 75.8139 134.197 77.3021 127.456Z" fill="#1A5669"/>
<path fill-rule="evenodd" clip-rule="evenodd" d="M296.172 140.381C299.894 143.394 303.915 145.979 308.236 148.137C309.723 150.136 310.298 152.434 309.96 155.03C305.97 155.658 301.948 155.946 297.896 155.892C296.802 151.75 295.366 147.729 293.587 143.828C293.634 141.991 294.496 140.842 296.172 140.381Z" fill="#F7FAFA"/>
<path fill-rule="evenodd" clip-rule="evenodd" d="M277.215 147.275C276.92 147.997 276.347 148.285 275.492 148.137C273.288 146.47 272.139 144.172 272.045 141.243C273.194 141.243 274.343 141.243 275.492 141.243C276.067 143.253 276.64 145.265 277.215 147.275Z" fill="#E6C6B8"/>
<path fill-rule="evenodd" clip-rule="evenodd" d="M297.896 139.52C301.357 141.554 304.804 143.565 308.236 145.552C308.236 146.413 308.236 147.275 308.236 148.137C303.915 145.979 299.894 143.394 296.172 140.381C296.467 139.659 297.041 139.372 297.896 139.52Z" fill="#9EA9B2"/>
<path fill-rule="evenodd" clip-rule="evenodd" d="M434.044 154.168C434.1 153.791 433.957 153.503 433.613 153.307C431.451 154.3 431.02 155.737 432.32 157.615C429.411 159.902 426.538 159.902 423.703 157.615C424.314 156.836 425.176 156.549 426.288 156.754C426.484 154.657 425.622 153.221 423.703 152.445C420.889 147.152 421.751 142.556 426.288 138.658C429.427 140.791 432.443 143.089 435.336 145.552C436.057 148.695 435.626 151.567 434.044 154.168Z" fill="#F1C4AF"/>
<path fill-rule="evenodd" clip-rule="evenodd" d="M153.993 152.445C154.049 152.068 153.906 151.78 153.562 151.583C151.793 154.851 149.065 155.856 145.376 154.599C144.357 153.076 143.209 152.932 141.929 154.168C141.787 150.996 141.93 147.837 142.36 144.69C144.236 142.943 146.39 141.794 148.823 141.243C154.678 143.022 156.401 146.756 153.993 152.445Z" fill="#F3C4B0"/>
<path fill-rule="evenodd" clip-rule="evenodd" d="M205.695 146.413C206.549 146.265 207.123 146.553 207.418 147.275C199.987 153.006 192.231 158.32 184.152 163.216C183.504 163.795 183.216 164.512 183.29 165.371C183.439 166.225 183.151 166.799 182.429 167.094C182.545 165.324 181.97 163.888 180.705 162.785C188.888 157.114 197.217 151.657 205.695 146.413Z" fill="#9EAAB2"/>
<path fill-rule="evenodd" clip-rule="evenodd" d="M293.587 143.828C295.366 147.729 296.802 151.75 297.896 155.892C301.948 155.946 305.97 155.658 309.96 155.03C312.258 155.03 314.555 155.03 316.853 155.03C324.79 166.022 330.678 178.086 334.518 191.221C335.093 196.391 335.093 201.562 334.518 206.732C332.862 217.006 330.42 227.058 327.193 236.891C326.045 236.891 324.895 236.891 323.747 236.891C312.854 233.689 301.652 231.391 290.141 229.998C287.119 228.73 283.959 227.581 280.662 226.551C286.643 209.51 291.813 192.276 296.172 174.849C293.386 175.103 290.801 174.529 288.417 173.126C285.178 166.93 281.731 160.898 278.077 155.03C277.122 153.065 275.973 151.197 274.63 149.429C275.109 149.099 275.396 148.668 275.492 148.137C276.347 148.285 276.92 147.997 277.215 147.275C277.747 147.179 278.178 146.892 278.508 146.413C281.637 150.406 285.084 154.14 288.848 157.615C288.608 154.48 288.608 151.32 288.848 148.137C290.356 146.479 291.935 145.042 293.587 143.828Z" fill="#055466"/>
<path fill-rule="evenodd" clip-rule="evenodd" d="M309.098 137.796C309.72 138.156 310.151 138.73 310.39 139.52C310.874 139.07 311.449 138.783 312.114 138.658C315.694 140.737 319.141 143.035 322.454 145.552C321.754 148.166 320.749 150.751 319.438 153.307C318.716 153.601 318.428 154.175 318.576 155.03C317.804 154.163 317.231 154.163 316.853 155.03C314.555 155.03 312.258 155.03 309.96 155.03C310.298 152.434 309.723 150.136 308.236 148.137C308.236 147.275 308.236 146.413 308.236 145.552C308.804 143.005 309.091 140.42 309.098 137.796Z" fill="#F0C5B0"/>
<path fill-rule="evenodd" clip-rule="evenodd" d="M41.9726 151.583C43.696 151.583 45.4194 151.583 47.1428 151.583C48.282 151.437 49.2873 151.724 50.1587 152.445C51.0006 154.375 51.4314 156.386 51.4513 158.477C51.4608 160.241 51.748 161.964 52.313 163.647C50.621 168.688 49.7593 173.858 49.7279 179.158C49.1534 179.732 48.579 180.306 48.0045 180.881C47.43 180.881 47.1428 180.594 47.1428 180.019C44.1597 179.173 41.0001 178.886 37.6642 179.158C37.6642 176.859 37.6642 174.562 37.6642 172.264C37.5211 167.659 37.6647 163.064 38.095 158.477C39.193 155.986 40.4855 153.688 41.9726 151.583Z" fill="#FAFCFB"/>
<path fill-rule="evenodd" clip-rule="evenodd" d="M41.9726 149.86C41.9726 150.435 41.9726 151.009 41.9726 151.583C40.4855 153.688 39.193 155.986 38.095 158.477C37.6647 163.064 37.5211 167.659 37.6641 172.264C36.8225 174.666 36.5353 177.251 36.8024 180.019C40.2492 180.019 43.696 180.019 47.1428 180.019C47.1428 180.594 47.43 180.881 48.0045 180.881C47.9464 182.138 48.2336 183.287 48.8662 184.328C48.8919 185.187 48.4611 185.762 47.5736 186.051C43.9579 187.134 40.3675 188.283 36.8024 189.498C34.8585 197.207 33.1352 204.962 31.6323 212.764C32.7812 212.764 33.9302 212.764 35.0791 212.764C32.9462 213.307 30.9356 214.169 29.0472 215.349C26.871 216.366 24.7167 217.515 22.5845 218.796C22.2973 218.509 22.01 218.221 21.7228 217.934C21.0745 209.873 21.2181 201.83 22.1536 193.806C22.0535 192.038 21.1918 190.89 19.5686 190.36C18.849 181.75 18.9925 173.133 19.9994 164.509C24.2923 161.221 28.1699 157.488 31.6323 153.307C34.8135 151.363 38.2603 150.213 41.9726 149.86Z" fill="#1A5669"/>
<path fill-rule="evenodd" clip-rule="evenodd" d="M153.993 152.445C153.845 153.3 154.132 153.874 154.855 154.168C155.215 154.791 155.789 155.221 156.578 155.461C152.782 156.355 149.335 157.935 146.238 160.2C145.374 158.898 144.799 157.462 144.514 155.892C143.136 156.123 141.988 155.835 141.067 155.03C141.642 155.03 141.929 154.743 141.929 154.168C143.209 152.932 144.357 153.076 145.376 154.599C149.065 155.856 151.793 154.851 153.562 151.583C153.906 151.78 154.049 152.068 153.993 152.445Z" fill="#E8E2DA"/>
<path fill-rule="evenodd" clip-rule="evenodd" d="M465.064 134.349C464.065 135.817 464.64 136.391 466.788 136.073C464.159 145.104 461 154.008 457.309 162.785C453.225 164.884 448.916 166.32 444.384 167.094C445.457 185.362 446.605 203.6 447.831 221.811C447.391 232.384 446.242 242.868 444.384 253.263C434.835 252.996 425.357 253.283 415.948 254.125C414.178 245.424 413.028 236.52 412.501 227.412C413.363 217.076 413.794 206.735 413.794 196.391C409.167 201.162 404.428 205.758 399.576 210.179C398.808 209.653 397.946 209.366 396.991 209.317C401.833 204.288 404.706 198.256 405.608 191.221C406.719 190.74 407.437 189.879 407.762 188.636C409.5 179.959 411.511 171.342 413.794 162.785C416.611 160.013 419.914 158.29 423.703 157.615C426.538 159.902 429.411 159.902 432.32 157.615C438.121 157.895 443.866 157.034 449.554 155.03C453.298 148.687 457.032 142.368 460.756 136.073C462.192 135.498 463.628 134.924 465.064 134.349Z" fill="#9BA8B0"/>
<path fill-rule="evenodd" clip-rule="evenodd" d="M141.067 155.03C141.988 155.835 143.136 156.123 144.514 155.892C144.799 157.462 145.374 158.898 146.238 160.2C145.376 161.637 144.227 162.785 142.791 163.647C139.753 162.333 138.03 160.036 137.621 156.754C138.63 156.025 139.779 155.452 141.067 155.03Z" fill="#F5B14B"/>
<path fill-rule="evenodd" clip-rule="evenodd" d="M80.7489 151.583C80.7489 153.882 80.7489 156.179 80.7489 158.477C84.0388 159.597 86.7669 161.607 88.9349 164.509C93.5304 176.559 90.8014 186.468 80.7489 194.237C76.8566 195.604 72.8351 196.323 68.6851 196.391C65.4159 196.408 62.3999 195.546 59.6373 193.806C59.2935 194.003 59.1505 194.291 59.2065 194.668C56.5775 191.46 54.2792 188.013 52.3129 184.328C55.3875 184.105 56.5361 182.381 55.7597 179.158C53.7491 179.158 51.7385 179.158 49.7279 179.158C49.7593 173.858 50.621 168.688 52.3129 163.647C51.748 161.964 51.4608 160.241 51.4512 158.477C52.2352 159.786 52.9534 161.221 53.6055 162.785C60.6559 154.942 69.1298 152.932 79.0255 156.754C79.6019 154.917 80.1758 153.194 80.7489 151.583Z" fill="#FFCD07"/>
<path fill-rule="evenodd" clip-rule="evenodd" d="M75.5318 166C77.5423 165.993 79.4739 166.781 80.9064 168.192C82.355 169.619 83.18 171.562 83.2014 173.595C83.2084 174.256 83.1302 174.91 82.9727 175.541C82.8341 175.465 82.6776 175.425 82.5169 175.425L72.2823 175.301C72.0953 175.301 71.9124 175.356 71.7565 175.459C71.6006 175.563 71.4786 175.71 71.4056 175.882L71.0816 174.615C71.0418 174.47 70.9684 174.337 70.8674 174.226C70.7664 174.115 70.6406 174.029 70.5003 173.976C70.3579 173.923 70.2049 173.905 70.054 173.923C69.9032 173.942 69.7589 173.996 69.6332 174.081L68.4325 174.891L67.0983 171.079C67.0409 170.915 66.9395 170.769 66.8051 170.658C66.6707 170.547 66.5084 170.475 66.336 170.45C66.1573 170.416 65.9727 170.434 65.8038 170.502C65.635 170.569 65.489 170.684 65.383 170.831L62.0954 175.301L57.7405 175.425C57.6153 175.428 57.4922 175.457 57.378 175.508C57.3148 175.537 57.255 175.572 57.1996 175.613C57.1877 175.561 57.1763 175.509 57.1654 175.457C56.8501 173.952 56.9876 172.388 57.5604 170.961C58.1332 169.534 59.1158 168.308 60.3841 167.439C61.6525 166.57 63.1499 166.096 64.6874 166.076C66.7116 166.062 68.6623 166.834 70.1287 168.23C71.5408 166.819 73.45 166.019 75.446 166H75.5318ZM57.8155 177.33C58.1993 178.101 58.7105 178.808 59.3319 179.417L59.7416 179.789C59.7809 179.844 59.8256 179.895 59.875 179.942L69.6141 189.471C69.7916 189.647 70.0311 189.746 70.2811 189.747C70.4072 189.747 70.5319 189.721 70.6481 189.672C70.7642 189.623 70.8695 189.551 70.9577 189.461L80.4871 179.713C80.5895 179.607 80.6676 179.48 80.7158 179.341L81.0207 179.046C81.5229 178.53 81.9456 177.951 82.2812 177.327L72.9208 177.207L72.1299 179.255C72.0607 179.435 71.9392 179.589 71.781 179.697C71.6229 179.806 71.4356 179.865 71.2436 179.865H71.196C70.9939 179.856 70.8001 179.783 70.6424 179.656C70.4848 179.529 70.3716 179.356 70.3193 179.16L69.5664 176.397L68.442 177.159C68.3205 177.241 68.1815 177.295 68.0361 177.314C67.8906 177.334 67.7425 177.32 67.6034 177.273C67.4647 177.227 67.3385 177.15 67.2344 177.048C67.1303 176.945 67.0511 176.82 67.003 176.683L65.8595 173.395L63.3533 176.816C63.2675 176.933 63.1558 177.03 63.027 177.098C62.8982 177.165 62.7555 177.203 62.61 177.207L57.8155 177.33Z" fill="#FAF3D1"/>
<path fill-rule="evenodd" clip-rule="evenodd" d="M154.855 154.168C155.716 154.168 156.578 154.168 157.44 154.168C161.013 154.879 164.748 155.31 168.642 155.461C173.408 156.832 177.429 159.273 180.705 162.785C181.97 163.888 182.545 165.324 182.429 167.094C182.656 169.9 184.092 171.624 186.737 172.264C187.698 176.788 187.841 181.383 187.168 186.051C183.59 197.816 175.692 204.135 163.472 205.008C150.623 205.241 142.15 199.209 138.052 186.913C136.71 179.247 137.715 172.067 141.067 165.37C141.929 165.084 142.504 164.509 142.791 163.647C144.227 162.785 145.376 161.637 146.238 160.2C149.335 157.935 152.782 156.355 156.578 155.461C155.789 155.221 155.215 154.791 154.855 154.168Z" fill="#98D035"/>
<path fill-rule="evenodd" clip-rule="evenodd" d="M319.438 153.307C320.358 154.112 321.507 154.399 322.885 154.168C331.023 161.127 339.927 167.158 349.597 172.264C349.225 173.307 348.65 174.168 347.874 174.849C338.109 168.243 328.342 161.637 318.576 155.03C318.428 154.175 318.716 153.601 319.438 153.307Z" fill="#9DA9B1"/>
<path fill-rule="evenodd" clip-rule="evenodd" d="M405.608 191.221C404.706 198.256 401.833 204.288 396.991 209.317C395.842 209.892 394.98 210.753 394.406 211.902C382.137 219.651 369.785 219.794 357.353 212.333C345.749 201.967 342.589 189.472 347.874 174.849C348.65 174.168 349.225 173.307 349.597 172.264C355.211 163.424 363.253 158.541 373.725 157.615C394.682 159.04 405.31 170.243 405.608 191.221Z" fill="#98D035"/>
<path fill-rule="evenodd" clip-rule="evenodd" d="M135.036 160.2C137.046 161.924 139.057 163.647 141.067 165.371C137.715 172.067 136.71 179.247 138.052 186.913C142.15 199.209 150.623 205.241 163.471 205.008C163.471 206.157 163.471 207.307 163.471 208.455C161.821 208.211 160.386 208.497 159.163 209.317C150.677 209.599 142.348 209.312 134.174 208.455C135.396 206.897 137.119 206.323 139.344 206.732C139.8 204.057 138.938 202.047 136.759 200.7C135.206 201.98 133.483 202.842 131.589 203.285C126.093 197.791 120.923 192.047 116.078 186.051C116.84 183.091 117.846 180.219 119.094 177.434C124.623 171.79 129.936 166.045 135.036 160.2Z" fill="#FAB340"/>
<path fill-rule="evenodd" clip-rule="evenodd" d="M183.29 165.371C186.141 164.917 188.007 166.066 188.891 168.817C189.676 170.924 188.957 172.073 186.737 172.264C184.092 171.624 182.656 169.901 182.429 167.094C183.151 166.799 183.439 166.225 183.29 165.371Z" fill="#F4C8B1"/>
<path fill-rule="evenodd" clip-rule="evenodd" d="M37.6641 172.264C37.6641 174.562 37.6641 176.859 37.6641 179.158C41.0001 178.886 44.1597 179.173 47.1428 180.019C43.696 180.019 40.2492 180.019 36.8024 180.019C36.5353 177.251 36.8225 174.666 37.6641 172.264Z" fill="#9CB0BB"/>
<path fill-rule="evenodd" clip-rule="evenodd" d="M49.7279 179.158C51.7385 179.158 53.7491 179.158 55.7597 179.158C56.5361 182.381 55.3875 184.105 52.313 184.328C51.1641 184.328 50.0151 184.328 48.8662 184.328C48.2336 183.287 47.9464 182.138 48.0045 180.881C48.579 180.306 49.1534 179.732 49.7279 179.158Z" fill="#F3C8B5"/>
<path fill-rule="evenodd" clip-rule="evenodd" d="M48.8662 184.328C50.0151 184.328 51.1641 184.328 52.3129 184.328C54.2792 188.013 56.5775 191.46 59.2065 194.668C59.9346 199.806 60.5094 204.977 60.9299 210.179C56.7395 209.904 52.7179 210.191 48.8662 211.04C44.2853 211.726 39.6896 212.301 35.0791 212.764C33.9302 212.764 32.7812 212.764 31.6323 212.764C33.1352 204.962 34.8586 197.207 36.8025 189.498C40.3675 188.283 43.958 187.134 47.5736 186.051C48.4611 185.762 48.8919 185.187 48.8662 184.328Z" fill="#F7F9F9"/>
<path fill-rule="evenodd" clip-rule="evenodd" d="M130.727 182.604C131.842 183.938 132.417 185.662 132.451 187.775C132.164 189.498 131.876 191.221 131.589 192.945C129.827 190.998 128.391 188.844 127.28 186.482C128.232 185.004 129.381 183.712 130.727 182.604Z" fill="#FEF4E6"/>
<path fill-rule="evenodd" clip-rule="evenodd" d="M68.6851 196.391C69.259 201.555 69.8329 206.725 70.4085 211.902C70.1216 213.338 69.8338 214.774 69.5468 216.21C68.2293 215.122 66.7937 214.26 65.2384 213.625C64.9437 212.903 64.3698 212.615 63.515 212.764C58.7653 211.365 53.8826 210.79 48.8662 211.04C52.7179 210.191 56.7395 209.904 60.9299 210.179C60.5094 204.977 59.9346 199.806 59.2065 194.668C59.1505 194.291 59.2935 194.003 59.6373 193.806C62.3999 195.546 65.4159 196.408 68.6851 196.391Z" fill="#1A5669"/>
<path fill-rule="evenodd" clip-rule="evenodd" d="M134.174 208.455C133.607 206.612 132.745 204.889 131.589 203.285C133.483 202.842 135.206 201.98 136.759 200.7C138.938 202.047 139.8 204.057 139.344 206.732C137.119 206.323 135.396 206.897 134.174 208.455Z" fill="#F9C39E"/>
<path fill-rule="evenodd" clip-rule="evenodd" d="M159.163 209.317C160.704 209.071 162.14 209.358 163.471 210.179C164.736 213.254 165.741 216.414 166.487 219.657C166.798 228.568 167.229 237.472 167.78 246.37C167.593 251.424 167.018 256.308 166.057 261.019C164.991 265.723 164.416 270.607 164.333 275.667C163.471 275.667 162.61 275.667 161.748 275.667C160.312 275.667 158.876 275.667 157.44 275.667C156.578 275.667 155.716 275.667 154.855 275.667C154.998 265.61 154.855 255.557 154.424 245.508C153.55 240.544 152.4 235.661 150.977 230.859C149.891 246.062 149.46 261.286 149.684 276.529C146.292 276.781 142.989 276.495 139.775 275.667C139.642 268.299 138.924 261.118 137.621 254.125C137.191 246.371 135.61 238.902 132.881 231.721C132.45 224.546 132.307 217.365 132.45 210.179C141.51 210.461 150.414 210.173 159.163 209.317Z" fill="#C9E8F5"/>
<path fill-rule="evenodd" clip-rule="evenodd" d="M396.991 209.317C397.946 209.366 398.808 209.653 399.576 210.179C399.112 211.572 398.825 213.008 398.714 214.487C396.618 214.683 395.182 213.821 394.406 211.902C394.98 210.753 395.842 209.892 396.991 209.317Z" fill="#F1C6B9"/>
<path fill-rule="evenodd" clip-rule="evenodd" d="M48.8662 211.04C53.8826 210.79 58.7653 211.365 63.515 212.764C63.515 220.806 63.515 228.849 63.515 236.891C62.0441 245.75 60.8954 254.654 60.0682 263.604C58.8661 267.129 58.2914 270.863 58.3448 274.806C57.5408 277.513 56.967 280.386 56.6214 283.423C56.6387 284.479 56.9256 285.341 57.4831 286.008C58.1639 287.123 59.0255 288.128 60.0682 289.024C57.9321 292.365 55.347 292.509 52.3129 289.454C50.4582 274.271 49.022 259.048 48.0045 243.785C48.0965 242.166 47.6657 241.879 46.7119 242.923C46.285 244.623 46.1414 246.347 46.2811 248.093C44.2145 261.555 42.3475 275.055 40.6801 288.593C37.9158 291.464 35.187 291.608 32.494 289.024C34.672 286.807 35.5337 284.078 35.0791 280.838C34.8918 275.783 34.3173 270.9 33.3557 266.189C31.6604 249.264 30.2243 232.317 29.0472 215.349C30.9356 214.169 32.9462 213.307 35.0791 212.764C39.6896 212.301 44.2853 211.726 48.8662 211.04Z" fill="#052A4E"/>
<path fill-rule="evenodd" clip-rule="evenodd" d="M63.515 212.764C64.3698 212.616 64.9437 212.903 65.2384 213.625C64.6636 221.381 64.0897 229.136 63.515 236.891C63.515 228.849 63.515 220.806 63.515 212.764Z" fill="#A6ABB0"/>
<path fill-rule="evenodd" clip-rule="evenodd" d="M290.141 229.998C301.652 231.391 312.854 233.689 323.747 236.891C322.227 245.151 321.365 253.481 321.162 261.88C319.985 270.04 319.411 278.369 319.438 286.869C317.611 287.02 315.887 286.732 314.268 286.008C312.747 269.53 310.449 253.157 307.374 236.891C305.495 240.085 304.203 243.531 303.497 247.231C303.297 259.312 303.728 271.376 304.789 283.423C302.719 283.378 300.708 283.665 298.757 284.284C297.689 276.854 295.966 269.673 293.587 262.742C292.707 256.633 291.414 250.602 289.71 244.646C289.072 239.719 289.216 234.836 290.141 229.998Z" fill="#072B4D"/>
<path fill-rule="evenodd" clip-rule="evenodd" d="M48.0045 243.785C47.43 245.221 46.8556 246.657 46.2811 248.093C46.1414 246.347 46.285 244.623 46.712 242.923C47.6657 241.879 48.0965 242.166 48.0045 243.785Z" fill="#8A9297"/>
<path fill-rule="evenodd" clip-rule="evenodd" d="M444.384 253.263C441.799 253.838 439.214 254.412 436.629 254.987C435.913 262.302 435.483 269.771 435.336 277.391C435.096 278.18 434.666 278.754 434.043 279.114C434.773 271.383 435.06 263.628 434.905 255.848C433.103 256.005 431.38 255.717 429.735 254.987C428.878 259.547 428.591 264.142 428.873 268.774C428.021 264.056 427.734 259.173 428.012 254.125C426.863 254.125 425.713 254.125 424.565 254.125C424.842 259.173 424.555 264.056 423.703 268.774C423.703 264.178 423.703 259.582 423.703 254.987C421.217 254.723 418.919 255.01 416.81 255.848C416.523 255.848 416.235 255.848 415.948 255.848C415.948 255.274 415.948 254.7 415.948 254.125C425.357 253.283 434.835 252.996 444.384 253.263Z" fill="#EBCABC"/>
<path fill-rule="evenodd" clip-rule="evenodd" d="M434.043 279.114C434.256 282.077 433.969 284.95 433.182 287.731C432.979 288.246 432.548 288.532 431.889 288.593C430.766 288.181 429.762 287.606 428.873 286.869C429.697 280.895 429.697 274.863 428.873 268.774C428.591 264.142 428.878 259.547 429.735 254.987C431.38 255.717 433.103 256.005 434.905 255.848C435.06 263.628 434.773 271.383 434.043 279.114Z" fill="#F6C6AF"/>
<path fill-rule="evenodd" clip-rule="evenodd" d="M423.703 268.774C423.449 274.882 423.736 280.913 424.565 286.869C422.126 289.308 420.115 289.021 418.533 286.008C418.872 284.744 419.159 283.451 419.395 282.13C417.338 273.486 416.476 264.726 416.81 255.848C418.919 255.01 421.217 254.723 423.703 254.987C423.703 259.582 423.703 264.178 423.703 268.774Z" fill="#F6C6B0"/>
<path fill-rule="evenodd" clip-rule="evenodd" d="M157.44 275.667C158.876 275.667 160.312 275.667 161.748 275.667C161.748 278.539 161.748 281.412 161.748 284.284C160.886 284.284 160.025 284.284 159.163 284.284C159.447 281.934 158.873 279.922 157.44 278.252C157.44 277.391 157.44 276.529 157.44 275.667Z" fill="#F6C6AF"/>
<path fill-rule="evenodd" clip-rule="evenodd" d="M147.961 283.423C146.941 285.068 145.648 285.355 144.083 284.284C143.661 285.398 143.517 286.548 143.653 287.731C142.806 284.458 142.518 281.012 142.791 277.391C144.227 277.391 145.663 277.391 147.099 277.391C146.925 279.502 147.212 281.512 147.961 283.423Z" fill="#E9C3B9"/>
<path fill-rule="evenodd" clip-rule="evenodd" d="M58.3448 274.806C58.2707 278.56 57.9829 282.294 57.4831 286.008C56.9256 285.341 56.6387 284.479 56.6214 283.423C56.967 280.386 57.5408 277.513 58.3448 274.806Z" fill="#ACB6C2"/>
<path fill-rule="evenodd" clip-rule="evenodd" d="M157.44 278.252C158.873 279.922 159.447 281.934 159.163 284.284C160.025 284.284 160.886 284.284 161.748 284.284C162.897 286.008 162.897 287.731 161.748 289.454C161.886 287.99 161.743 286.554 161.317 285.146C159.95 286.203 158.8 285.916 157.87 284.284C157.471 284.796 157.327 285.371 157.44 286.008C156.534 283.557 156.534 280.972 157.44 278.252Z" fill="#BCA6A0"/>
<path fill-rule="evenodd" clip-rule="evenodd" d="M147.961 283.423C149.102 285.694 149.102 287.991 147.961 290.316C145.559 291.395 144.123 290.533 143.653 287.731C143.517 286.548 143.661 285.398 144.083 284.284C145.648 285.355 146.941 285.068 147.961 283.423Z" fill="#1E304A"/>
<path fill-rule="evenodd" clip-rule="evenodd" d="M161.748 289.454C158.789 290.676 157.353 289.528 157.44 286.008C157.327 285.371 157.471 284.796 157.87 284.284C158.8 285.916 159.95 286.203 161.317 285.146C161.743 286.554 161.886 287.99 161.748 289.454Z" fill="#182338"/>
<path fill-rule="evenodd" clip-rule="evenodd" d="M304.789 283.423C305.594 284.921 305.594 286.357 304.789 287.731C301.742 289.28 298.583 290.428 295.311 291.178C296.071 288.692 297.22 286.394 298.757 284.284C300.708 283.665 302.719 283.378 304.789 283.423Z" fill="#31B9BA"/>
<path fill-rule="evenodd" clip-rule="evenodd" d="M314.268 286.008C315.887 286.732 317.61 287.02 319.438 286.869C319.902 288.263 320.189 289.699 320.3 291.178C316.566 291.753 312.832 292.326 309.098 292.901C308.969 291.995 309.112 291.133 309.529 290.316C311.417 289.168 312.996 287.731 314.268 286.008Z" fill="#3ABBB9"/>
<path fill-rule="evenodd" clip-rule="evenodd" d="M428.873 286.869C429.762 287.606 430.766 288.181 431.889 288.593C432.548 288.532 432.979 288.246 433.182 287.731C434.149 289.272 434.293 290.995 433.613 292.901C432.855 295.354 431.419 295.928 429.304 294.625C428.875 292.055 428.731 289.47 428.873 286.869Z" fill="#132541"/>
<path fill-rule="evenodd" clip-rule="evenodd" d="M418.533 286.008C420.115 289.021 422.126 289.308 424.565 286.869C424.704 288.616 424.561 290.339 424.134 292.04C423.377 294.492 421.94 295.067 419.826 293.763C418.835 291.27 418.405 288.685 418.533 286.008Z" fill="#172B47"/>
<path d="M222.625 94.5407H271.375V115.666H222.625V94.5407Z" fill="#CFE8FF"/>
<path d="M222.625 115.666C222.625 118.252 225.193 120.731 229.764 122.56C234.335 124.388 240.535 125.416 247 125.416C253.465 125.416 259.665 124.388 264.236 122.56C268.807 120.731 271.375 118.252 271.375 115.666C271.375 113.08 268.807 110.6 264.236 108.771C259.665 106.943 253.465 105.916 247 105.916C240.535 105.916 234.335 106.943 229.764 108.771C225.193 110.6 222.625 113.08 222.625 115.666Z" fill="#CFE8FF"/>
<path d="M245.537 75.3656L208.975 91.4531C207.675 92.1031 207.675 93.8906 208.975 94.5406L245.537 110.628C246.513 110.953 247.487 110.953 248.463 110.628L285.025 94.5406C286.325 93.8906 286.325 92.1031 285.025 91.4531L248.463 75.3656C247.487 74.8781 246.513 74.8781 245.537 75.3656Z" fill="#E8F5FF"/>
<path d="M278.2 95.1906L245.7 89.6656C244.888 89.5031 243.913 90.1531 243.75 90.9656C243.588 91.7781 244.238 92.7531 245.05 92.9156L276.25 98.1156V122.166C276.25 123.141 276.9 123.791 277.875 123.791C278.85 123.791 279.5 123.141 279.5 122.166V96.8156C279.5 96.0031 278.85 95.3531 278.2 95.1906Z" fill="#CFE8FF"/>
<path d="M274.625 122.166C274.625 122.592 274.709 123.015 274.872 123.41C275.036 123.804 275.275 124.162 275.577 124.464C275.879 124.766 276.237 125.005 276.631 125.169C277.026 125.332 277.448 125.416 277.875 125.416C278.302 125.416 278.725 125.332 279.119 125.169C279.513 125.005 279.872 124.766 280.173 124.464C280.475 124.162 280.714 123.804 280.878 123.41C281.041 123.015 281.125 122.592 281.125 122.166C281.125 121.739 281.041 121.316 280.878 120.922C280.714 120.527 280.475 120.169 280.173 119.867C279.872 119.565 279.513 119.326 279.119 119.163C278.725 118.999 278.302 118.915 277.875 118.915C277.448 118.915 277.026 118.999 276.631 119.163C276.237 119.326 275.879 119.565 275.577 119.867C275.275 120.169 275.036 120.527 274.872 120.922C274.709 121.316 274.625 121.739 274.625 122.166Z" fill="#CFE8FF"/>
<path d="M282.75 127.041C282.75 129.803 277.875 136.791 277.875 136.791C277.875 136.791 273 129.803 273 127.041C273 124.278 275.112 122.166 277.875 122.166C280.637 122.166 282.75 124.278 282.75 127.041Z" fill="#CFE8FF"/>
<path fill-rule="evenodd" clip-rule="evenodd" d="M352.462 13.8127C355.224 13.8035 357.878 14.8858 359.846 16.824C361.836 18.7852 362.97 21.4541 362.999 24.248C363.009 25.1566 362.902 26.0543 362.685 26.9211C362.495 26.8174 362.28 26.7616 362.059 26.7616L347.997 26.5914C347.74 26.5916 347.489 26.6674 347.275 26.8095C347.06 26.9515 346.893 27.1534 346.793 27.3901L346.347 25.6487C346.293 25.4499 346.192 25.2669 346.053 25.1144C345.914 24.962 345.742 24.8445 345.549 24.7715C345.353 24.6988 345.143 24.6739 344.936 24.6989C344.728 24.724 344.53 24.7982 344.357 24.9155L342.708 26.0284L340.875 20.7912C340.796 20.5652 340.656 20.3651 340.472 20.2128C340.287 20.0604 340.064 19.9616 339.827 19.9271C339.582 19.8804 339.328 19.9049 339.096 19.9977C338.864 20.0905 338.663 20.2477 338.518 20.4508L334.001 26.5914L328.017 26.7616C327.845 26.7668 327.676 26.8057 327.519 26.8763C327.432 26.9154 327.35 26.9637 327.274 27.0203C327.258 26.9493 327.242 26.878 327.227 26.8066C326.794 24.7388 326.983 22.5891 327.77 20.6285C328.557 18.6679 329.907 16.9843 331.65 15.79C333.392 14.5956 335.45 13.9441 337.562 13.9174C340.343 13.8982 343.023 14.959 345.038 16.8764C346.978 14.9381 349.601 13.8381 352.344 13.8127H352.462ZM328.12 29.3795C328.648 30.4391 329.35 31.4095 330.204 32.2474L330.767 32.7581C330.821 32.8338 330.882 32.904 330.95 32.9676L344.331 46.0604C344.575 46.3023 344.904 46.4387 345.248 46.4401C345.421 46.4394 345.592 46.4043 345.752 46.3369C345.911 46.2695 346.056 46.171 346.177 46.0473L359.27 32.6533C359.411 32.508 359.518 32.3338 359.584 32.1427L360.003 31.7368C360.693 31.0276 361.274 30.232 361.735 29.376L348.874 29.21L347.788 32.0249C347.693 32.271 347.526 32.4826 347.308 32.6322C347.091 32.7817 346.834 32.8621 346.57 32.8629H346.505C346.227 32.8501 345.961 32.7494 345.744 32.5752C345.527 32.401 345.372 32.1624 345.3 31.894L344.266 28.0971L342.721 29.1445C342.554 29.2577 342.363 29.3307 342.163 29.358C341.963 29.3852 341.76 29.3659 341.569 29.3016C341.378 29.2386 341.205 29.1326 341.062 28.9918C340.919 28.8511 340.81 28.6793 340.744 28.4899L339.173 23.9728L335.729 28.6732C335.611 28.8347 335.458 28.9671 335.281 29.0601C335.104 29.1532 334.908 29.2044 334.708 29.21L328.12 29.3795Z" fill="#FAF3D1"/>
<path d="M388.706 189.544C389.47 190.243 389.422 191.491 388.688 192.226L382.376 198.538C381.927 198.987 381.318 199.239 380.683 199.239H369.524C368.464 199.239 367.928 199.807 367.133 200.63C366.869 200.903 366.487 201.04 366.11 200.99C363.768 200.682 361.961 198.679 361.961 196.252V193.76C361.961 193.443 362.087 193.139 362.311 192.915L364.247 190.98C364.696 190.531 365.305 190.279 365.94 190.279H369.333C371.286 190.279 371.149 192.071 373.108 192.071H377.493C378.431 192.071 379.285 192.829 379.285 193.863C379.285 194.842 378.503 195.655 377.493 195.655H369.727C369.727 196.312 370.265 196.85 370.922 196.85H378.009C378.642 196.85 379.25 196.598 379.698 196.15L386.238 189.609C386.585 189.263 387.045 189.084 387.505 189.084C387.935 189.084 388.365 189.239 388.706 189.544ZM368.867 181.557C367.099 179.765 366.794 176.892 368.329 174.896C370.181 172.483 373.634 172.322 375.701 174.412C377.768 172.322 381.221 172.483 383.072 174.896C383.667 175.669 383.983 176.579 384.046 177.502C385.848 176.713 387.956 177.244 389.173 178.827C390.482 180.532 390.287 183.015 388.719 184.605C388.719 184.605 388.718 184.605 388.718 184.605L385.08 188.285C384.568 188.801 383.889 189.085 383.168 189.085C382.447 189.085 381.768 188.801 381.256 188.286L378.567 185.566L377.684 186.461C376.591 187.566 374.811 187.566 373.718 186.461L368.867 181.557ZM378.468 183.766L382.105 187.445C382.674 188.019 383.661 188.02 384.231 187.444L387.869 183.765C389.019 182.598 389.173 180.789 388.226 179.555C387.3 178.351 385.662 177.985 384.331 178.686C384.065 178.837 383.81 179.029 383.59 179.249C383.478 179.361 383.327 179.424 383.168 179.424C383.167 179.424 383.167 179.424 383.166 179.424C383.007 179.424 382.855 179.36 382.743 179.247C382.163 178.66 381.376 178.332 380.561 178.332C380.499 178.332 380.436 178.334 380.373 178.338C379.475 178.393 378.671 178.826 378.11 179.556C377.163 180.789 377.317 182.599 378.468 183.766ZM363.923 185.917C364.158 186.157 364.544 186.157 364.779 185.917L366.268 184.389C366.792 183.852 366.895 182.989 366.425 182.403C365.892 181.737 364.93 181.701 364.351 182.295C363.771 181.701 362.81 181.737 362.276 182.403C361.807 182.989 361.909 183.852 362.433 184.389L363.923 185.917Z" fill="#DDF9C7"/>
<path d="M162.61 35.1631C162.525 35.0772 162.43 34.9986 162.325 34.9289L162.218 34.9065C162.161 34.882 162.117 34.8419 162.087 34.7935C161.92 34.7144 161.744 34.6634 161.566 34.6379C161.412 34.6165 161.304 34.4734 161.326 34.3182C161.347 34.1631 161.491 34.0548 161.645 34.0761C161.822 34.1022 161.998 34.147 162.168 34.2136C162.196 34.0897 162.211 33.9632 162.211 33.8357C162.211 33.5566 162.145 33.275 162.006 33.01C161.846 32.7071 161.613 32.4708 161.339 32.3095C161.1 32.1679 160.829 32.0835 160.551 32.0638C160.531 32.3172 160.471 32.5697 160.365 32.8143C160.303 32.958 160.137 33.0241 159.993 32.9622C159.849 32.9007 159.783 32.7342 159.844 32.5905C159.945 32.3548 159.993 32.1122 159.994 31.8716L159.99 31.7691C159.971 31.436 159.861 31.1143 159.673 30.84C159.485 30.5661 159.221 30.3418 158.893 30.1997C158.658 30.0992 158.415 30.0518 158.175 30.0518C157.715 30.0518 157.27 30.2289 156.934 30.5411C156.997 30.7551 157.032 30.9805 157.032 31.2148C157.032 31.3709 156.904 31.4979 156.748 31.4979C156.592 31.4979 156.465 31.3709 156.465 31.2148C156.465 30.9852 156.422 30.7676 156.345 30.5651H156.346C156.215 30.2242 155.984 29.9306 155.688 29.7234C155.393 29.5163 155.035 29.395 154.646 29.395C154.308 29.395 153.993 29.4871 153.722 29.6464C153.506 29.7744 153.319 29.9473 153.172 30.1503C153.459 30.5433 153.629 31.029 153.629 31.5526C153.629 31.7088 153.501 31.8353 153.344 31.8353C153.188 31.8353 153.061 31.7088 153.061 31.5526C153.061 31.0925 152.892 30.6739 152.61 30.3538C152.276 29.9722 151.788 29.7334 151.242 29.7334C150.862 29.7334 150.513 29.8484 150.221 30.0462C149.93 30.244 149.698 30.5241 149.561 30.853C149.473 31.068 149.422 31.3049 149.422 31.5526C149.422 31.7088 149.296 31.8353 149.139 31.8353C148.982 31.8353 148.856 31.7088 148.856 31.5526C148.856 31.3225 148.889 31.1008 148.95 30.8894C148.736 30.803 148.505 30.7552 148.268 30.7552C148.133 30.7552 147.998 30.7708 147.86 30.8015C147.456 30.8947 147.118 31.1123 146.871 31.4069C146.693 31.6193 146.566 31.8717 146.5 32.1429C147.086 32.1533 147.671 32.3797 148.123 32.8222C148.234 32.932 148.236 33.1111 148.127 33.2225C148.017 33.3349 147.838 33.336 147.726 33.2271C147.371 32.881 146.913 32.7076 146.453 32.7071C146.371 32.7071 146.289 32.7128 146.206 32.7232H146.205H146.205C145.819 32.7768 145.447 32.9527 145.152 33.2537C144.806 33.6076 144.634 34.0647 144.633 34.5259C144.633 34.7888 144.691 35.0537 144.805 35.2973C144.894 35.4894 145.019 35.6685 145.18 35.8257V35.8261C145.363 36.0052 145.573 36.1375 145.797 36.2238C145.942 36.2806 146.016 36.4446 145.959 36.5903C145.902 36.7371 145.738 36.81 145.592 36.7527C145.299 36.6392 145.022 36.4654 144.783 36.2306C144.678 36.1276 144.585 36.0177 144.502 35.9012C144.288 36.2078 144.172 36.5747 144.172 36.9485C144.172 37.2379 144.241 37.5299 144.388 37.8042C144.552 38.1114 144.79 38.3508 145.07 38.5143C145.291 38.6439 145.539 38.7256 145.794 38.7543L145.793 38.7371C145.793 38.5871 145.807 38.4404 145.833 38.2977C145.862 38.1437 146.01 38.0431 146.163 38.0707C146.317 38.0994 146.419 38.2472 146.391 38.4012C146.371 38.51 146.36 38.623 146.36 38.737L146.365 38.8687L146.38 39.0015V39.003L146.38 39.0056C146.51 39.8947 147.279 40.5594 148.178 40.5594L148.309 40.5542H148.31C148.708 40.5256 149.066 40.3714 149.351 40.1315C149.55 39.9634 149.713 39.7526 149.825 39.5151C149.891 39.373 150.062 39.3127 150.203 39.3798C150.344 39.4465 150.405 39.6151 150.338 39.7567C150.217 40.0123 150.051 40.2429 149.852 40.4391C149.964 40.7816 150.173 41.0758 150.446 41.2944C150.759 41.5448 151.153 41.6926 151.578 41.6926L151.71 41.6874H151.71C151.98 41.6682 152.229 41.5906 152.45 41.4698C152.416 41.3069 152.396 41.1404 152.396 40.9717C152.396 40.6239 152.474 40.2694 152.634 39.9363C152.702 39.7952 152.872 39.7364 153.012 39.8046C153.153 39.8717 153.213 40.0415 153.145 40.1825C153.021 40.4381 152.964 40.7067 152.964 40.9717C152.964 41.157 152.992 41.3418 153.048 41.5172H153.048C153.193 41.9799 153.521 42.3844 153.993 42.6113C154.248 42.7347 154.517 42.7925 154.781 42.7925C155.202 42.7925 155.612 42.6457 155.938 42.3797L155.939 42.3792C156.137 42.2162 156.303 42.0101 156.422 41.7639L156.422 41.7628C156.533 41.5328 156.591 41.2918 156.601 41.0512C156.609 40.8951 156.74 40.7733 156.897 40.7806C157.054 40.7873 157.174 40.9195 157.168 41.0757C157.154 41.3911 157.078 41.7097 156.932 42.01V42.0095C156.816 42.2526 156.662 42.4666 156.482 42.6492C156.816 43.1292 157.372 43.4316 157.973 43.4311C158.085 43.4311 158.198 43.4208 158.312 43.3988C158.75 43.3166 159.119 43.0849 159.381 42.7664C159.643 42.4472 159.796 42.0418 159.796 41.6138L159.795 41.5754V41.5733C159.793 41.477 159.783 41.376 159.765 41.2744C159.719 41.0335 159.627 40.8148 159.501 40.6217C159.318 40.4603 159.114 40.2495 158.922 40.0152C158.717 39.7654 158.529 39.4921 158.402 39.2168C158.319 39.0325 158.26 38.8462 158.259 38.6499C158.259 38.563 158.271 38.473 158.304 38.3866C158.335 38.2986 158.387 38.2153 158.457 38.1466C158.567 38.0367 158.746 38.0367 158.857 38.1466C158.968 38.2579 158.968 38.438 158.857 38.5479L158.836 38.5818L158.825 38.65C158.824 38.7213 158.854 38.8421 158.918 38.981C158.981 39.1196 159.075 39.2751 159.186 39.4287C159.406 39.7363 159.691 40.0383 159.905 40.2225L159.934 40.2475L159.956 40.2793C160.131 40.5406 160.26 40.8415 160.322 41.1699V41.1704L160.342 41.311L160.427 41.3146C160.786 41.3141 161.148 41.2079 161.466 40.9846C161.719 40.8065 161.911 40.578 162.042 40.3214C162.172 40.0643 162.24 39.78 162.24 39.4938C162.24 39.2257 162.18 38.9565 162.059 38.7062C161.947 38.7421 161.834 38.7707 161.719 38.7905C161.565 38.8181 161.418 38.7134 161.391 38.5594C161.365 38.4048 161.469 38.2591 161.623 38.232C162.125 38.1456 162.584 37.8531 162.869 37.3835C163.049 37.0884 163.134 36.7635 163.134 36.4424C163.134 35.9692 162.951 35.5065 162.61 35.1634L162.61 35.1631ZM149.624 33.0008C149.894 32.6806 150.254 32.4531 150.64 32.3042C151.028 32.1553 151.443 32.084 151.842 32.084C152.23 32.0845 152.602 32.1502 152.919 32.297C153.06 32.3615 153.122 32.5307 153.057 32.6728C152.992 32.8144 152.823 32.8768 152.68 32.8113C152.462 32.7088 152.162 32.6499 151.842 32.6499C151.512 32.6499 151.16 32.7108 150.844 32.8337C150.528 32.9549 150.25 33.1361 150.055 33.3662C149.955 33.4859 149.776 33.5015 149.656 33.3995C149.537 33.2985 149.522 33.12 149.624 33.0008ZM156.074 39.7021C155.745 39.7021 155.446 39.6647 155.173 39.6017C155.18 39.6798 155.186 39.7667 155.186 39.8589C155.186 40.0437 155.165 40.2549 155.108 40.4767C155.049 40.6979 154.951 40.9306 154.796 41.1539C154.707 41.283 154.53 41.3147 154.402 41.2257C154.273 41.1366 154.241 40.9607 154.329 40.8311C154.444 40.6661 154.515 40.4974 154.559 40.3314C154.603 40.1654 154.619 40.004 154.619 39.8588C154.619 39.6584 154.589 39.4934 154.567 39.3991C154.428 39.3366 154.301 39.2664 154.182 39.1878C153.707 38.8806 153.389 38.4752 153.19 38.0894C153.056 37.8307 152.975 37.5809 152.931 37.3638C152.906 37.2399 152.894 37.1275 152.894 37.0254C152.894 36.8682 153.021 36.7412 153.177 36.7412C153.334 36.7412 153.461 36.8682 153.461 37.0254C153.461 37.1076 153.478 37.2456 153.523 37.4023C153.568 37.5595 153.639 37.738 153.742 37.9176C153.949 38.2789 154.277 38.6406 154.784 38.8754C155.123 39.0326 155.545 39.1346 156.074 39.1346C156.231 39.1346 156.358 39.2617 156.358 39.4183C156.358 39.5752 156.231 39.7021 156.074 39.7021ZM158.07 37.6325C158.012 37.7772 157.847 37.848 157.701 37.7902C157.556 37.7319 157.486 37.5679 157.543 37.4227V37.4221L157.545 37.418L157.553 37.393L157.582 37.291C157.604 37.2015 157.626 37.075 157.626 36.936L157.625 36.9162C157.236 37.0484 156.874 37.1077 156.542 37.1077C156.039 37.1088 155.604 36.9708 155.25 36.7616C154.895 36.5524 154.619 36.2754 154.413 35.9938C154.179 35.6747 153.872 35.3885 153.52 35.186C153.167 34.9829 152.773 34.8622 152.354 34.8611C151.987 34.8622 151.596 34.9538 151.189 35.1776C150.802 35.39 150.553 35.6726 150.392 35.9829C150.232 36.2936 150.165 36.633 150.165 36.9422C150.164 37.2285 150.225 37.4877 150.303 37.6512C150.37 37.7928 150.309 37.9614 150.168 38.0286C150.027 38.0958 149.858 38.0348 149.791 37.8938C149.668 37.6324 149.599 37.3034 149.598 36.9422C149.598 36.583 149.67 36.1905 149.845 35.8152C149.493 35.8949 149.166 35.9303 148.869 35.9303C148.708 35.9303 148.556 35.9199 148.412 35.9012L148.36 36.0074L148.359 36.0084L148.355 36.0126L148.34 36.0319L148.279 36.1141C148.228 36.1881 148.156 36.2958 148.079 36.4332C147.924 36.7054 147.747 37.0896 147.661 37.521C147.631 37.6746 147.482 37.7751 147.328 37.7438C147.175 37.7131 147.075 37.5643 147.106 37.4097C147.208 36.8979 147.41 36.4628 147.585 36.1531C147.677 35.9928 147.761 35.8658 147.822 35.7793C147.591 35.7101 147.391 35.6253 147.228 35.5388C146.855 35.3404 146.66 35.1416 146.644 35.1255C146.535 35.0125 146.539 34.8334 146.651 34.7247C146.764 34.6164 146.943 34.6195 147.051 34.7309L147.054 34.734L147.071 34.7502L147.152 34.8183C147.226 34.8766 147.34 34.9568 147.493 35.038C147.799 35.1993 148.256 35.3628 148.869 35.3639C149.299 35.3639 149.807 35.2817 150.396 35.0547C150.546 34.9157 150.718 34.7887 150.916 34.6804C151.401 34.4145 151.89 34.2947 152.353 34.2947C152.883 34.2947 153.376 34.4489 153.803 34.6945C154.23 34.9413 154.592 35.2791 154.87 35.6591C155.039 35.8886 155.262 36.1109 155.537 36.2727C155.814 36.4352 156.141 36.5409 156.542 36.5413C156.816 36.5413 157.125 36.4903 157.475 36.3675C157.39 36.2306 157.263 36.0983 157.053 35.9786C156.917 35.901 156.869 35.7283 156.946 35.5924C157.023 35.4555 157.196 35.4086 157.332 35.4846C157.667 35.6736 157.891 35.924 158.022 36.1858C158.153 36.4466 158.192 36.711 158.192 36.9359C158.191 37.3285 158.078 37.6122 158.07 37.6325ZM157.964 34.16C157.302 34.16 156.722 33.9814 156.254 33.7113C156.188 33.8029 156.099 33.918 155.985 34.0429C155.729 34.3245 155.352 34.6551 154.847 34.8362C154.699 34.8882 154.538 34.8122 154.485 34.6644C154.432 34.5165 154.51 34.3547 154.656 34.3026C155.029 34.1699 155.34 33.9091 155.555 33.6733C155.655 33.5655 155.733 33.4635 155.789 33.3854C155.51 33.1492 155.289 32.88 155.137 32.6031C154.994 32.3376 154.91 32.0638 154.909 31.7978C154.909 31.6417 155.036 31.5146 155.193 31.5146C155.349 31.5146 155.476 31.6417 155.476 31.7978C155.475 31.941 155.525 32.132 155.636 32.3324C155.744 32.5333 155.91 32.7426 156.126 32.93C156.559 33.3054 157.185 33.5926 157.964 33.5926C158.121 33.5926 158.247 33.7202 158.247 33.8768C158.247 34.033 158.12 34.16 157.964 34.16ZM160.198 38.151C160.099 38.2707 159.919 38.2884 159.799 38.1879C159.678 38.0885 159.661 37.9094 159.76 37.7892C160.069 37.4138 160.183 37.0359 160.184 36.6742C160.185 36.3447 160.084 36.0266 159.926 35.7586C159.77 35.491 159.554 35.2766 159.346 35.1574C159.207 35.0772 159.076 35.0413 158.972 35.0413C158.815 35.0413 158.688 34.9148 158.688 34.7581C158.688 34.6015 158.815 34.4744 158.972 34.4744C159.144 34.4744 159.312 34.5166 159.473 34.5874C159.633 34.6572 159.784 34.7566 159.924 34.8779C160.205 35.1204 160.443 35.4505 160.593 35.8373C160.692 36.0954 160.752 36.3786 160.752 36.6743C160.753 37.1604 160.587 37.6809 160.198 38.151Z" fill="#FDE0DB"/>
<path d="M146.813 52.3502L146.833 52.3678C146.832 52.3673 146.832 52.3673 146.832 52.3667L146.813 52.3502Z" fill="#FDE0DB"/>
<path d="M163.829 29.4209C161.72 26.9551 158.548 25.2759 154.485 25.0307C154.154 25.0104 153.825 25 153.499 25C150.081 25 146.937 26.1098 144.632 28.1472C142.326 30.1794 140.89 33.1548 140.895 36.7184C140.895 36.7991 140.895 36.8797 140.897 36.961L140.893 37.3909L137.96 42.5718C137.802 42.8513 137.722 43.1631 137.722 43.4749C137.722 43.7351 137.777 43.9965 137.889 44.2401C138.126 44.757 138.592 45.1287 139.144 45.2567L139.143 45.2613L140.492 45.633L141.025 50.7744L141.029 50.7739C141.067 51.5229 141.401 52.2262 141.968 52.7196C142.473 53.159 143.117 53.3974 143.779 53.3974C143.846 53.3974 143.912 53.3911 143.979 53.3865L145.507 53.5077L145.584 53.4994L145.608 53.4984C145.667 53.4984 145.722 53.5192 145.764 53.5572L145.767 53.5599C145.815 53.6036 145.844 53.6676 145.844 53.7332V59H160.118V58.2005C160.118 58.2005 160.118 56.0346 160.118 55.1705C160.117 54.8227 160.186 54.1351 160.322 53.4719C160.39 53.1394 160.474 52.8077 160.569 52.521C160.662 52.2347 160.771 51.9911 160.861 51.849C161.811 50.3186 163.153 49.0631 164.383 47.2875C165.611 45.5136 166.657 43.2122 166.944 39.7205C166.981 39.2827 166.999 38.8449 166.999 38.4093C166.999 35.099 165.941 31.8846 163.829 29.4209ZM165.35 39.5871C165.073 42.8327 164.165 44.7747 163.066 46.3806C161.968 47.9849 160.61 49.2462 159.505 51.001C159.313 51.3112 159.171 51.6548 159.05 52.0202C158.87 52.5673 158.742 53.1638 158.654 53.7192C158.566 54.2762 158.52 54.7811 158.519 55.1705C158.519 55.7254 158.519 56.5645 158.519 57.4009H147.443V53.7333C147.443 53.2122 147.221 52.7161 146.833 52.3679C146.494 52.0634 146.056 51.8989 145.608 51.8989C145.576 51.8989 145.544 51.9025 145.511 51.9046L143.984 51.7828L143.909 51.7911L143.779 51.7984C143.501 51.7984 143.23 51.698 143.018 51.5137C142.773 51.3008 142.629 50.9947 142.619 50.6694L142.619 50.6393L141.97 44.3824L139.539 43.712L139.51 43.7062C139.436 43.6916 139.374 43.6427 139.343 43.574L139.321 43.4751L139.351 43.3595L142.489 37.8184L142.496 36.9527V36.9412C142.494 36.8663 142.494 36.7924 142.494 36.7185C142.499 33.5807 143.719 31.0967 145.692 29.3451C147.667 27.5976 150.424 26.5992 153.499 26.5992C153.792 26.5992 154.088 26.6086 154.386 26.6268L154.435 25.8288L154.386 26.6268C158.068 26.8584 160.778 28.3274 162.615 30.4621C164.449 32.5984 165.4 35.4358 165.4 38.4092C165.4 38.8 165.384 39.193 165.35 39.5871Z" fill="#FDE0DB"/>
<path d="M175.178 169.864C172.993 170.828 170.074 170.97 167.346 169.839C166.02 169.29 163.225 167.938 162.271 166.565C161.317 167.938 158.522 169.29 157.196 169.839C154.468 170.97 151.549 170.828 149.363 169.864C148.971 169.69 148.542 169.977 148.542 170.406C148.542 193.427 162.271 194.435 162.271 194.435C162.271 194.435 176 193.427 176 170.406C176 169.977 175.57 169.69 175.178 169.864ZM153.189 173.387C154.933 173.387 156.635 173.048 158.248 172.379C159.126 172.015 160.791 171.263 162.271 170.242C163.75 171.263 165.415 172.015 166.293 172.379C167.907 173.048 169.609 173.387 171.353 173.387C171.966 173.387 172.575 173.343 173.173 173.258C172.271 189.224 163.839 191.397 162.271 191.663C160.702 191.397 152.27 189.224 151.369 173.258C151.967 173.344 152.576 173.387 153.189 173.387Z" fill="#DDF9C7"/>
<path d="M162.271 188.844C163.901 188.371 168.786 186.128 170.146 176.091C168.461 175.965 166.816 175.572 165.241 174.919C164.568 174.64 163.456 174.145 162.271 173.476C161.086 174.145 159.974 174.64 159.301 174.919C157.726 175.572 156.081 175.964 154.396 176.091C155.756 186.128 160.641 188.371 162.271 188.844Z" fill="#DDF9C7"/>
<path d="M95.0222 73.5073C81.9633 73.5073 82.0513 76.0892 82.0513 76.0892V83.2646C84.4768 83.0477 86.1431 82.6777 87.2197 82.3486C88.8223 81.8585 89.4633 81.3651 89.5763 81.2702C89.817 80.9755 90.1554 80.8256 90.5142 80.8256C90.6637 80.8256 90.8159 80.8512 90.9667 80.9034C91.4871 81.0835 91.8041 81.6104 91.8041 82.1606V92.5342C92.8169 92.0316 93.9061 91.776 95.0805 91.7723C95.3923 91.7871 95.7278 91.8076 96.1947 91.8685C96.6122 91.9491 96.9883 92.0245 97.377 92.1609C98.1412 92.4276 98.885 92.806 99.5502 93.3459C100.746 94.2918 101.785 95.7558 101.995 97.4833C102.029 97.7676 101.809 97.9328 101.532 97.8598C100.203 97.51 99.1868 97.441 98.1891 97.3652L96.5824 97.2944L94.9636 97.2697C94.0387 97.2795 92.929 97.285 91.8529 97.3553C91.8367 97.3562 91.8198 97.358 91.8041 97.359C91.7994 100.222 91.157 102.916 90.0325 105.262C91.5695 106.012 93.2549 106.427 95.0245 106.427C102.191 106.427 108 99.6346 108 91.2588V76.0892C108 76.0892 108.08 73.5073 95.0222 73.5073ZM103.616 87.5907C102.056 88.7916 99.8104 88.6775 98.3814 87.2486C96.9526 85.8197 96.8385 83.5739 98.0393 82.0145C98.214 81.7876 98.5456 81.7894 98.7481 81.992L103.638 86.8818C103.841 87.0844 103.842 87.416 103.616 87.5907Z" fill="#FDE0DB"/>
<path d="M90.5133 82.1606C90.5133 82.1606 88.1501 84.7429 77.5402 84.7429C66.9311 84.7429 64.5652 82.1606 64.5652 82.1606V97.3292C64.5652 105.705 70.375 112.493 77.5388 112.493C84.7045 112.493 90.5133 105.706 90.5133 97.3292V82.1606ZM68.6746 95.8118C68.3881 95.8118 68.1523 95.5786 68.1892 95.2946C68.4427 93.3429 70.1114 91.8354 72.1322 91.8354C74.153 91.8354 75.8217 93.3429 76.0752 95.2946C76.1121 95.5787 75.8763 95.8118 75.5899 95.8118H68.6746ZM84.507 100.942C84.2954 102.664 83.2546 104.124 82.0612 105.074C80.6974 106.129 79.1749 106.643 77.4773 106.648C77.1646 106.633 76.8322 106.618 76.3626 106.552C75.9446 106.471 75.5685 106.401 75.1798 106.259C74.416 105.992 73.6727 105.614 73.009 105.079C71.8139 104.134 70.7728 102.666 70.563 100.938C70.5284 100.654 70.748 100.488 71.025 100.561C72.3545 100.912 73.3733 100.984 74.3714 101.055L75.9776 101.126L77.5941 101.152C78.5186 101.147 79.6287 101.142 80.7075 101.066C81.7056 100.994 82.7227 100.921 84.046 100.568C84.3229 100.494 84.542 100.658 84.507 100.942ZM86.4039 95.8118H79.4887C79.2022 95.8118 78.9664 95.5786 79.0034 95.2946C79.2569 93.3429 80.9256 91.8354 82.9464 91.8354C84.9671 91.8354 86.6358 93.3429 86.8894 95.2946C86.9262 95.5786 86.6904 95.8118 86.4039 95.8118Z" fill="#FDE0DB"/>
<path d="M468.263 120.637H464.589C465.139 120.195 465.633 119.735 466.092 119.244L466.103 119.232C468.519 116.526 469.993 112.968 469.993 109.075C469.993 109.005 469.993 108.934 469.992 108.864V108.875C469.997 108.731 470 108.56 470 108.391C470 100.732 463.94 94.45 456.231 93.8371L456.177 93.8331V91.4C456.174 89.5947 455.048 88.0462 453.443 87.3808L453.414 87.3701V84.6803C453.414 83.7528 452.64 83 451.687 83H446.161C445.208 83 444.435 83.7528 444.435 84.6803V87.3714C442.8 88.0475 441.674 89.5974 441.672 91.4014V107.532C441.674 109.944 443.683 111.898 446.161 111.901H451.687C454.166 111.899 456.176 109.944 456.177 107.532V97.2769C462.025 97.8657 466.546 102.636 466.546 108.434C466.546 108.59 466.544 108.744 466.537 108.899L466.538 108.878C466.539 108.937 466.539 109.005 466.539 109.075C466.539 112.11 465.397 114.888 463.507 117.019L463.521 117.003C461.374 119.25 458.321 120.649 454.931 120.649C454.762 120.649 454.594 120.645 454.425 120.638L454.449 120.639H433.727C432.774 120.639 432 121.392 432 122.32C432 123.247 432.774 124 433.727 124H468.263C469.217 124 469.99 123.247 469.99 122.32C469.99 121.392 469.217 120.639 468.263 120.639V120.637ZM447.887 86.3592H449.959V87.0313H447.887V86.3592ZM452.722 107.531C452.714 108.084 452.255 108.531 451.687 108.539H446.16C445.591 108.531 445.132 108.084 445.124 107.532V91.4C445.132 90.8462 445.591 90.3999 446.159 90.3919H451.686C452.255 90.3999 452.714 90.8462 452.722 91.3987V107.531ZM440.634 117.94H457.212C458.165 117.94 458.939 117.188 458.939 116.26C458.939 115.332 458.165 114.58 457.212 114.58H440.634C439.681 114.58 438.907 115.332 438.907 116.26C438.907 117.188 439.681 117.94 440.634 117.94Z" fill="#FDE0DB"/>
<path d="M29 36H48.7015M30.0945 32.7256H47.607M32.2836 32.7256V27.2683M36.6617 32.7256V27.2683M41.0398 32.7256V27.2683M45.4179 32.7256V27.2683M38.8507 20.727L38.8588 20.7197M48.7015 23.9939L41.1777 17.3249C40.3543 16.595 39.9426 16.2301 39.4781 16.0916C39.0688 15.9695 38.6327 15.9695 38.2234 16.0916C37.7588 16.2301 37.3472 16.595 36.5238 17.3249L29 23.9939H48.7015Z" stroke="#FFF5C2" stroke-width="1.85323" stroke-linecap="round" stroke-linejoin="round"/>
<path fill-rule="evenodd" clip-rule="evenodd" d="M8 90.3606C10.8596 91.4731 13.8774 92.1257 16.9412 92.2941V94.5294H21.4118V92.2941C24.4682 92.1027 27.4803 91.4664 30.3529 90.4053V99H8V90.3606ZM22.5294 80L23.6471 81.1176V83.3529H30.3529V89.1759C26.926 90.4554 23.3036 91.1322 19.6459 91.1765H18.8412C15.1344 91.1364 11.464 90.4402 8 89.12V83.3529H14.7059V81.1176L15.8235 80H22.5294ZM21.4118 82.2353H16.9412V83.3529H21.4118V82.2353Z" fill="#CFE8FF"/>
<path d="M433.094 28.1179L430.192 34.5134H429.347L432.443 27.7048H427.663V43.5663C428.648 43.6022 433.674 45.2211 433.674 45.2211V46H420.166V45.1684C420.166 45.1684 425.303 43.5655 426.077 43.5655V27.7048H421.449L424.546 34.5134H423.701L420.799 28.1179L417.896 34.5134H417.052L420.166 27.6666V26.877H425.361C425.361 25.8438 426.059 25 426.873 25C427.733 25 428.384 25.8919 428.384 26.877H433.675V27.5544L436.842 34.5134H435.997L433.094 28.1179ZM424.599 35.2931C424.599 37.3495 423.162 39.3266 420.799 39.3266C418.49 39.3266 417 37.3495 417 35.2931C416.999 35.2961 424.599 35.2961 424.599 35.2931ZM429.4 35.2931C429.4 35.2969 437 35.2969 437 35.2931C437 37.3495 435.563 39.3266 433.201 39.3266C430.891 39.3266 429.4 37.3495 429.4 35.2931Z" fill="#E8F5FF"/>
</svg>
