<svg width="125" height="32" viewBox="0 0 125 32" fill="none" xmlns="http://www.w3.org/2000/svg">
<path d="M117.889 23.855C116.388 24.2085 114.853 24.3177 113.283 24.1826C111.73 24.0206 110.343 23.5898 109.122 22.8904L110.344 18.5742C111.573 19.019 112.723 19.3219 113.794 19.4828C114.887 19.6385 115.835 19.6216 116.64 19.4321C117.097 19.3245 117.421 19.1907 117.613 19.0307C117.8 18.849 117.86 18.6168 117.793 18.334C117.747 18.1383 117.632 17.9931 117.449 17.8985C117.266 17.8039 116.986 17.7323 116.607 17.6838C116.25 17.6302 115.793 17.5888 115.235 17.5595C113.774 17.3987 112.538 17.2193 111.527 17.0213C110.538 16.8182 109.746 16.4769 109.151 15.9973C108.573 15.4908 108.166 14.7374 107.93 13.737C107.653 12.5627 107.703 11.4605 108.081 10.4305C108.453 9.37881 109.121 8.46389 110.085 7.68577C111.071 6.90252 112.336 6.32901 113.88 5.96523C115.033 5.69367 116.229 5.60696 117.469 5.70511C118.725 5.77639 120.007 6.1515 121.315 6.83045L119.858 11.1678C118.612 10.7499 117.575 10.4892 116.747 10.3858C115.941 10.2773 115.244 10.2922 114.657 10.4305C114.374 10.4971 114.132 10.5887 113.93 10.7052C113.749 10.8165 113.62 10.9503 113.542 11.1064C113.464 11.2625 113.451 11.4492 113.502 11.6667C113.553 11.8842 113.673 12.0511 113.861 12.1675C114.044 12.2621 114.314 12.3362 114.671 12.3898C115.023 12.4217 115.467 12.4549 116.003 12.4892C117.584 12.5758 118.896 12.7372 119.939 12.9736C120.977 13.1882 121.787 13.5596 122.371 14.0878C122.976 14.6109 123.399 15.3835 123.64 16.4056C124.065 18.2107 123.757 19.7754 122.714 21.0998C121.694 22.4191 120.085 23.3375 117.889 23.855Z" fill="#FFCD07"/>
<path d="M104.25 24.1616C102.708 24.1616 101.334 23.927 100.127 23.4578C98.921 22.9662 97.9044 22.3071 97.0777 21.4804C96.2734 20.6538 95.6589 19.7042 95.2344 18.6317C94.8099 17.5593 94.5977 16.431 94.5977 15.2468C94.5977 13.5488 94.9663 11.9959 95.7036 10.5883C96.4409 9.15841 97.5246 8.01893 98.9545 7.1699C100.384 6.29854 102.149 5.86285 104.25 5.86285C106.35 5.86285 108.115 6.28737 109.545 7.13639C110.975 7.98541 112.059 9.10255 112.796 10.4878C113.533 11.8731 113.902 13.3812 113.902 15.0122C113.902 15.3474 113.879 15.6937 113.835 16.0511C113.812 16.3863 113.779 16.6879 113.734 16.956H101.368C101.412 17.5816 101.58 18.0955 101.87 18.4977C102.183 18.8775 102.563 19.1568 103.01 19.3355C103.479 19.5143 103.959 19.6036 104.451 19.6036C105.143 19.6036 105.791 19.4472 106.395 19.1344C107.02 18.8216 107.434 18.386 107.635 17.8274L113.03 19.369C112.561 20.3074 111.902 21.1341 111.053 21.8491C110.226 22.5641 109.243 23.1338 108.104 23.5583C106.964 23.9605 105.68 24.1616 104.25 24.1616ZM101.233 13.1354H107.065C106.998 12.5545 106.83 12.063 106.562 11.6608C106.316 11.2586 105.981 10.9458 105.557 10.7224C105.155 10.499 104.685 10.3873 104.149 10.3873C103.613 10.3873 103.133 10.499 102.708 10.7224C102.306 10.9458 101.971 11.2586 101.703 11.6608C101.457 12.063 101.3 12.5545 101.233 13.1354Z" fill="#0076D6"/>
<path fill-rule="evenodd" clip-rule="evenodd" d="M109.337 23.0103C109.969 22.6789 110.541 22.2919 111.053 21.8491C111.902 21.1341 112.561 20.3075 113.03 19.3691L112.713 19.2785C112.085 19.1363 111.432 18.9497 110.754 18.7186L110.336 18.5992L109.122 22.8904C109.193 22.9313 109.265 22.9712 109.337 23.0103ZM111.234 16.956C110.38 16.7483 109.686 16.4288 109.15 15.9973C108.572 15.4909 108.165 14.7374 107.929 13.7371C107.652 12.5627 107.703 11.4605 108.08 10.4306C108.452 9.37883 109.12 8.4639 110.084 7.68578C110.13 7.64939 110.176 7.61346 110.224 7.57797C111.322 8.36089 112.18 9.33084 112.796 10.4878C113.533 11.8731 113.902 13.3812 113.902 15.0122C113.902 15.3474 113.879 15.6937 113.835 16.0512C113.812 16.3863 113.779 16.6879 113.734 16.956H111.234Z" fill="#FFF5C2"/>
<path d="M88.8025 24.1615C87.2385 24.1615 85.8532 23.9158 84.6467 23.4242C83.4402 22.9327 82.4236 22.2624 81.5969 21.4134C80.7926 20.542 80.1782 19.5589 79.7536 18.4641C79.3515 17.3694 79.1504 16.2187 79.1504 15.0122C79.1504 13.8057 79.3515 12.655 79.7536 11.5602C80.1782 10.4431 80.7926 9.46002 81.5969 8.611C82.4236 7.76197 83.4402 7.09169 84.6467 6.60015C85.8532 6.10861 87.2385 5.86284 88.8025 5.86284C90.3888 5.86284 91.774 6.10861 92.9582 6.60015C94.1647 7.09169 95.1701 7.76197 95.9745 8.611C96.8012 9.46002 97.4156 10.4431 97.8178 11.5602C98.2423 12.655 98.4545 13.8057 98.4545 15.0122C98.4545 16.2187 98.2423 17.3694 97.8178 18.4641C97.4156 19.5589 96.8012 20.542 95.9745 21.4134C95.1701 22.2624 94.1647 22.9327 92.9582 23.4242C91.774 23.9158 90.3888 24.1615 88.8025 24.1615ZM85.6856 15.0122C85.6856 15.7942 85.8197 16.4756 86.0878 17.0566C86.3559 17.6151 86.7246 18.0508 87.1938 18.3636C87.663 18.6541 88.1992 18.7993 88.8025 18.7993C89.4057 18.7993 89.9419 18.6541 90.4111 18.3636C90.8803 18.0508 91.249 17.6151 91.5171 17.0566C91.7852 16.4756 91.9193 15.7942 91.9193 15.0122C91.9193 14.2302 91.7852 13.5599 91.5171 13.0013C91.249 12.4204 90.8803 11.9848 90.4111 11.6943C89.9419 11.3815 89.4057 11.2251 88.8025 11.2251C88.1992 11.2251 87.663 11.3815 87.1938 11.6943C86.7246 11.9848 86.3559 12.4204 86.0878 13.0013C85.8197 13.5599 85.6856 14.2302 85.6856 15.0122ZM91.1149 5.70365C90.4446 5.70365 89.8637 5.56959 89.3722 5.30148C88.8807 5.03336 88.4226 4.76525 87.9981 4.49714C87.5959 4.22903 87.1379 4.09497 86.624 4.09497C86.1325 4.09497 85.775 4.22903 85.5516 4.49714C85.3282 4.74291 85.1941 4.99985 85.1494 5.26796C85.1047 5.53608 85.0824 5.6813 85.0824 5.70365H81.6975C81.6975 5.41319 81.7757 4.97751 81.9321 4.3966C82.1108 3.81569 82.3901 3.2236 82.7699 2.62035C83.1497 1.99475 83.6301 1.4697 84.211 1.04518C84.8143 0.620673 85.5292 0.408417 86.3559 0.408417C87.0932 0.408417 87.6965 0.553645 88.1657 0.844101C88.6349 1.13456 89.0706 1.42501 89.4727 1.71547C89.8973 1.98358 90.3664 2.11764 90.8803 2.11764C91.3719 2.11764 91.7294 1.98358 91.9528 1.71547C92.1986 1.44735 92.3549 1.16807 92.422 0.877614C92.5113 0.587158 92.556 0.430759 92.556 0.408417H95.9074C95.9074 0.609502 95.8181 0.989328 95.6393 1.5479C95.4606 2.10647 95.1813 2.70972 94.8015 3.35766C94.4217 3.98326 93.3269 4.99985 93.3269 4.99985C93.3269 4.99985 91.9863 5.70365 91.1149 5.70365Z" fill="#FB5A47"/>
<path fill-rule="evenodd" clip-rule="evenodd" d="M96.5488 9.26569C97.092 9.95464 97.5149 10.7195 97.8176 11.5604C98.2421 12.6552 98.4544 13.8058 98.4544 15.0123C98.4544 16.2188 98.2421 17.3695 97.8176 18.4643C97.5048 19.3159 97.0635 20.1 96.4937 20.8164C95.9696 20.1559 95.5499 19.4277 95.2349 18.6319C94.8104 17.5594 94.5981 16.4311 94.5981 15.2469C94.5981 13.5489 94.9668 11.9961 95.7041 10.5885C95.9478 10.1158 96.2294 9.67488 96.5488 9.26569Z" fill="#FDB8AE"/>
<path d="M74.6968 24.0589C73.1328 24.0589 71.7476 23.8132 70.5411 23.3216C69.3569 22.8301 68.3515 22.1598 67.5248 21.3108C66.6981 20.4394 66.0725 19.4563 65.648 18.3615C65.2235 17.2667 65.0112 16.1161 65.0112 14.9096C65.0112 13.3009 65.3799 11.8039 66.1172 10.4187C66.8768 9.01109 67.9716 7.88278 69.4016 7.03376C70.8539 6.18474 72.6189 5.76022 74.6968 5.76022C76.8194 5.76022 78.6068 6.20708 80.0591 7.10079C81.5113 7.9945 82.595 9.14515 83.3099 10.5527L77.1098 12.4295C76.8194 12.005 76.4619 11.681 76.0374 11.4576C75.6352 11.2342 75.1772 11.1225 74.6633 11.1225C74.0824 11.1225 73.5573 11.2789 73.0881 11.5917C72.6189 11.8821 72.2391 12.3066 71.9487 12.8652C71.6805 13.4238 71.5465 14.1052 71.5465 14.9096C71.5465 15.6916 71.6805 16.373 71.9487 16.9539C72.2391 17.5125 72.6189 17.9482 73.0881 18.261C73.5573 18.5514 74.0824 18.6967 74.6633 18.6967C75.0208 18.6967 75.3447 18.652 75.6352 18.5626C75.9257 18.4509 76.1938 18.2945 76.4395 18.0934C76.7077 17.8923 76.9311 17.6577 77.1098 17.3896L83.3099 19.2664C82.8407 20.2048 82.1928 21.0315 81.3661 21.7465C80.5618 22.4614 79.601 23.0312 78.4839 23.4557C77.3891 23.8578 76.1267 24.0589 74.6968 24.0589ZM74.1941 31.0969C73.5685 31.0969 72.8982 30.9964 72.1833 30.7953C71.4683 30.6165 70.7533 30.3372 70.0383 29.9574L71.513 26.7065C71.7587 26.93 72.0269 27.0864 72.3173 27.1757C72.6078 27.2875 72.8759 27.3433 73.1216 27.3433C73.5238 27.3433 73.859 27.2316 74.1271 27.0082C74.3952 26.7847 74.5292 26.4608 74.5292 26.0363C74.5292 25.6564 74.4064 25.2654 74.1606 24.8633C73.9148 24.4834 73.5685 24.1036 73.1216 23.7238L75.1325 22.5173C75.9815 23.1429 76.7077 23.8355 77.3109 24.5952C77.9365 25.3548 78.2493 26.2597 78.2493 27.3098C78.2493 28.2929 77.9142 29.1642 77.2439 29.9239C76.5959 30.7059 75.5793 31.0969 74.1941 31.0969Z" fill="#FFCD07"/>
<path fill-rule="evenodd" clip-rule="evenodd" d="M81.6613 21.479C82.3485 20.8275 82.898 20.0899 83.3098 19.2663L79.6465 18.1574C79.6804 18.2601 79.716 18.3624 79.7534 18.4641C80.1779 19.5589 80.7923 20.542 81.5967 21.4133C81.6181 21.4353 81.6397 21.4572 81.6613 21.479ZM79.7253 11.6377C79.7345 11.6118 79.7439 11.586 79.7534 11.5602C80.1779 10.443 80.7923 9.45997 81.5967 8.61095C81.6536 8.55244 81.7115 8.49479 81.7703 8.43799C82.398 9.06302 82.9112 9.76791 83.3098 10.5527L79.7253 11.6377Z" fill="#FFF5C2"/>
<path d="M56.9095 0H64.2155L71.7897 23.795H65.1539L63.7128 19.1366H57.3787L55.9711 23.795H49.3018L56.9095 0ZM62.6739 14.7797L60.5625 6.4012L58.3506 14.7797H62.6739Z" fill="#0076D6"/>
<path fill-rule="evenodd" clip-rule="evenodd" d="M67.0783 8.99408L71.766 23.7211C71.3389 23.6136 70.9304 23.4805 70.5406 23.3217C69.3564 22.8301 68.351 22.1598 67.5243 21.3108C66.6976 20.4394 66.072 19.4564 65.6475 18.3616C65.223 17.2668 65.0107 16.1161 65.0107 14.9096C65.0107 13.3009 65.3794 11.804 66.1167 10.4187C66.3929 9.90692 66.7134 9.43204 67.0783 8.99408Z" fill="#A1D3FF"/>
<path d="M52.8682 10.8816C51.5723 10.8816 50.3993 11.0938 49.3492 11.5183C48.2991 11.9205 47.5395 12.5238 47.0703 13.3281V23.8851H41.708V6.29015H46.6346V9.84264C47.2378 8.65848 48.0198 7.73125 48.9806 7.06097C49.9413 6.39069 50.9467 6.04438 51.9968 6.02203C52.2426 6.02203 52.4214 6.02203 52.5331 6.02203C52.6671 6.02203 52.7788 6.03321 52.8682 6.05555V10.8816Z" fill="#0076D6"/>
<path d="M34.6639 24.0254C33.1669 24.0254 31.8375 23.7908 30.6757 23.3216C29.5139 22.8301 28.5196 22.171 27.6929 21.3443C26.8886 20.5176 26.2742 19.568 25.8497 18.4956C25.4251 17.4008 25.2129 16.2613 25.2129 15.0772C25.2129 13.3791 25.5815 11.8375 26.3189 10.4522C27.0785 9.04461 28.1621 7.9163 29.5697 7.06727C30.9773 6.19591 32.6754 5.76022 34.6639 5.76022C36.6524 5.76022 38.3393 6.18474 39.7245 7.03376C41.1321 7.88278 42.2045 8.99992 42.9419 10.3852C43.6792 11.7481 44.0478 13.2339 44.0478 14.8426C44.0478 15.1553 44.0255 15.4681 43.9808 15.7809C43.9585 16.0714 43.9361 16.3283 43.9138 16.5518H30.9103C30.9773 17.3338 31.1896 17.9929 31.5471 18.5291C31.9269 19.0653 32.4073 19.4787 32.9882 19.7691C33.5691 20.0372 34.1835 20.1713 34.8314 20.1713C35.6358 20.1713 36.3843 19.9814 37.0769 19.6016C37.7919 19.2217 38.2834 18.7078 38.5515 18.0599L43.1094 19.3334C42.6626 20.2495 42.0258 21.065 41.1991 21.78C40.3948 22.4726 39.434 23.02 38.3169 23.4222C37.2221 23.8243 36.0044 24.0254 34.6639 24.0254ZM30.7762 13.2674H38.4175C38.3281 12.5301 38.1158 11.8933 37.7807 11.3571C37.4455 10.7985 36.9987 10.374 36.4401 10.0835C35.8816 9.77075 35.2671 9.61435 34.5968 9.61435C33.9042 9.61435 33.2786 9.77075 32.7201 10.0835C32.1838 10.374 31.7481 10.7985 31.413 11.3571C31.0779 11.8933 30.8656 12.5301 30.7762 13.2674Z" fill="#FB5A47"/>
<path fill-rule="evenodd" clip-rule="evenodd" d="M41.7085 8.63947L41.7085 16.552H43.9147C43.9371 16.3285 43.9594 16.0716 43.9817 15.7811C44.0264 15.4683 44.0488 15.1555 44.0488 14.8427C44.0488 13.2341 43.6801 11.7483 42.9428 10.3854C42.6027 9.74634 42.1913 9.16437 41.7085 8.63947ZM41.7085 18.9419L43.1104 19.3336C42.7599 20.0521 42.2926 20.7087 41.7085 21.3035L41.7085 18.9419Z" fill="#FDB8AE"/>
<path d="M30.1549 22.777C29.6633 22.9781 29.1159 23.1792 28.5127 23.3803C27.9318 23.5814 27.3174 23.7378 26.6694 23.8495C26.0215 23.9835 25.3847 24.0506 24.7591 24.0506C23.8654 24.0506 23.0387 23.9053 22.2791 23.6149C21.5418 23.3021 20.9497 22.7994 20.5028 22.1067C20.0783 21.4141 19.8661 20.4981 19.8661 19.3586V10.1757H17.6206V6.12051H19.8661V0.523651H25.2283V6.12051H28.8143V10.1757H25.2283V17.5153C25.2283 18.0962 25.3735 18.5207 25.664 18.7888C25.9544 19.0346 26.3231 19.1575 26.77 19.1575C27.1498 19.1575 27.552 19.0905 27.9765 18.9564C28.4233 18.8224 28.8032 18.6771 29.1159 18.5207L30.1549 22.777Z" fill="#0076D6"/>
<path fill-rule="evenodd" clip-rule="evenodd" d="M29.8172 22.9116C29.9324 22.8667 30.0448 22.8218 30.1545 22.777L29.1155 18.5207C28.8027 18.6771 28.4229 18.8223 27.9761 18.9564C27.5515 19.0904 27.1494 19.1574 26.7695 19.1574C26.5168 19.1574 26.289 19.1181 26.0862 19.0395C26.4918 19.8919 27.0273 20.6601 27.6929 21.3442C28.3082 21.9595 29.0163 22.4819 29.8172 22.9116ZM28.8139 7.57294C27.8535 8.28483 27.0736 9.15241 26.4743 10.1757H28.8139V7.57294ZM25.2279 14.49C25.2179 14.6836 25.2129 14.8793 25.2129 15.0771C25.2129 15.2589 25.2179 15.4397 25.2279 15.6194V14.49Z" fill="#A1D3FF"/>
<path d="M20.963 23.8264H15.6008V13.9398C15.6008 12.7779 15.3773 11.9401 14.9305 11.4262C14.506 10.89 13.9362 10.6219 13.2213 10.6219C12.7297 10.6219 12.227 10.7559 11.7131 11.024C11.1992 11.2921 10.73 11.6608 10.3055 12.13C9.90337 12.5992 9.59057 13.1354 9.36714 13.7387V23.8264H4.00488V6.2315H8.83092V9.18075C9.27777 8.48812 9.83634 7.89604 10.5066 7.4045C11.1769 6.91296 11.9477 6.5443 12.8191 6.29853C13.6905 6.03042 14.64 5.89636 15.6678 5.89636C16.8073 5.89636 17.7233 6.10862 18.416 6.53313C19.1309 6.9353 19.6671 7.47153 20.0246 8.14181C20.4045 8.81209 20.6502 9.53823 20.7619 10.3202C20.896 11.0799 20.963 11.8284 20.963 12.5657V23.8264Z" fill="#FFCD07"/>
<path fill-rule="evenodd" clip-rule="evenodd" d="M20.9631 22.699C20.7956 22.52 20.6421 22.3225 20.5028 22.1066C20.0783 21.4139 19.8661 20.4979 19.8661 19.3584V10.1755H17.6206V6.16977C17.9123 6.26564 18.1774 6.3867 18.416 6.53295C19.131 6.93512 19.6672 7.47135 20.0247 8.14163C20.4046 8.81191 20.6503 9.53805 20.762 10.32C20.8961 11.0797 20.9631 11.8282 20.9631 12.5655V22.699Z" fill="#FFF5C2"/>
<path d="M0 23.8264V0.0313721H5.49632V23.8264H0Z" fill="#7FB135"/>
<path fill-rule="evenodd" clip-rule="evenodd" d="M5.49641 6.23151V23.8264H4.00488V6.23151H5.49641Z" fill="#C5EE93"/>
</svg>
