<svg width="204" height="52" viewBox="0 0 204 52" fill="none" xmlns="http://www.w3.org/2000/svg">
<path d="M192.394 39.208C189.945 39.785 187.44 39.9632 184.878 39.7426C182.343 39.4782 180.08 38.7752 178.088 37.6337L180.08 30.5897C182.087 31.3157 183.964 31.81 185.712 32.0725C187.495 32.3267 189.043 32.2991 190.356 31.9897C191.102 31.8141 191.631 31.5958 191.944 31.3347C192.249 31.0382 192.347 30.6592 192.238 30.1978C192.163 29.8783 191.976 29.6414 191.677 29.487C191.379 29.3326 190.92 29.2158 190.302 29.1367C189.72 29.0491 188.973 28.9815 188.063 28.9337C185.679 28.6714 183.662 28.3786 182.012 28.0555C180.398 27.724 179.105 27.1669 178.134 26.3842C177.19 25.5577 176.526 24.3281 176.141 22.6955C175.69 20.7789 175.772 18.9802 176.387 17.2993C176.994 15.5828 178.085 14.0897 179.659 12.8198C181.268 11.5415 183.333 10.6056 185.853 10.0119C187.734 9.56869 189.686 9.42719 191.709 9.58737C193.759 9.70369 195.852 10.3159 197.986 11.4239L195.608 18.5025C193.574 17.8204 191.882 17.395 190.531 17.2262C189.215 17.0492 188.078 17.0735 187.12 17.2993C186.659 17.408 186.263 17.5574 185.933 17.7475C185.639 17.9292 185.428 18.1474 185.301 18.4022C185.173 18.657 185.152 18.9618 185.235 19.3167C185.319 19.6716 185.514 19.944 185.821 20.134C186.12 20.2884 186.56 20.4093 187.143 20.4969C187.717 20.5489 188.442 20.603 189.316 20.6591C191.897 20.8003 194.038 21.0638 195.74 21.4496C197.433 21.7998 198.756 22.406 199.709 23.268C200.696 24.1217 201.387 25.3825 201.78 27.0506C202.474 29.9964 201.97 32.5501 200.269 34.7115C198.604 36.8646 195.979 38.3635 192.394 39.208Z" fill="#FFCD07"/>
<path d="M170.136 39.7083C167.62 39.7083 165.377 39.3254 163.408 38.5597C161.439 37.7575 159.78 36.6818 158.431 35.3327C157.118 33.9835 156.116 32.4338 155.423 30.6836C154.73 28.9334 154.384 27.092 154.384 25.1594C154.384 22.3882 154.985 19.854 156.189 17.5568C157.392 15.2231 159.16 13.3635 161.494 11.9779C163.828 10.5558 166.708 9.84479 170.136 9.84479C173.563 9.84479 176.444 10.5376 178.778 11.9232C181.111 13.3088 182.88 15.132 184.083 17.3927C185.286 19.6534 185.888 22.1147 185.888 24.7765C185.888 25.3235 185.851 25.8887 185.779 26.4721C185.742 27.019 185.687 27.5113 185.614 27.9488H165.432C165.505 28.9698 165.778 29.8085 166.252 30.4648C166.763 31.0847 167.383 31.5405 168.112 31.8322C168.878 32.1239 169.662 32.2698 170.464 32.2698C171.594 32.2698 172.652 32.0145 173.636 31.504C174.657 30.9935 175.332 30.2825 175.66 29.3709L184.466 31.8869C183.7 33.4184 182.624 34.7675 181.239 35.9343C179.89 37.1012 178.285 38.031 176.426 38.7238C174.566 39.3801 172.469 39.7083 170.136 39.7083ZM165.213 21.7136H174.73C174.621 20.7656 174.347 19.9634 173.91 19.307C173.509 18.6507 172.962 18.1402 172.269 17.7756C171.613 17.4109 170.847 17.2286 169.972 17.2286C169.097 17.2286 168.313 17.4109 167.62 17.7756C166.963 18.1402 166.417 18.6507 165.979 19.307C165.578 19.9634 165.323 20.7656 165.213 21.7136Z" fill="#0076D6"/>
<path fill-rule="evenodd" clip-rule="evenodd" d="M178.439 37.8292C179.47 37.2884 180.404 36.6568 181.239 35.9344C182.624 34.7675 183.7 33.4184 184.466 31.8869L183.945 31.7382C182.922 31.5066 181.859 31.2028 180.756 30.8269L180.069 30.6306L178.088 37.6337C178.204 37.7004 178.321 37.7655 178.439 37.8292ZM181.536 27.9489C180.142 27.6099 179.008 27.0883 178.134 26.3842C177.19 25.5577 176.526 24.3281 176.141 22.6955C175.69 20.7789 175.772 18.9802 176.387 17.2993C176.994 15.5828 178.085 14.0897 179.659 12.8198C179.733 12.7605 179.809 12.702 179.886 12.6442C181.679 13.9218 183.078 15.5047 184.083 17.3927C185.286 19.6535 185.888 22.1147 185.888 24.7766C185.888 25.3235 185.851 25.8887 185.779 26.4721C185.742 27.0191 185.687 27.5113 185.614 27.9489H181.536Z" fill="#FFF5C2"/>
<path d="M144.925 39.7082C142.372 39.7082 140.112 39.3071 138.143 38.5049C136.174 37.7027 134.514 36.6088 133.165 35.2232C131.853 33.8012 130.85 32.1968 130.157 30.4101C129.501 28.6234 129.173 26.7455 129.173 24.7765C129.173 22.8075 129.501 20.9296 130.157 19.1429C130.85 17.3197 131.853 15.7153 133.165 14.3297C134.514 12.9441 136.174 11.8502 138.143 11.048C140.112 10.2458 142.372 9.84473 144.925 9.84473C147.514 9.84473 149.774 10.2458 151.707 11.048C153.676 11.8502 155.317 12.9441 156.63 14.3297C157.979 15.7153 158.981 17.3197 159.638 19.1429C160.331 20.9296 160.677 22.8075 160.677 24.7765C160.677 26.7455 160.331 28.6234 159.638 30.4101C158.981 32.1968 157.979 33.8012 156.63 35.2232C155.317 36.6088 153.676 37.7027 151.707 38.5049C149.774 39.3071 147.514 39.7082 144.925 39.7082ZM139.838 24.7765C139.838 26.0527 140.057 27.1648 140.494 28.1129C140.932 29.0245 141.534 29.7355 142.299 30.246C143.065 30.72 143.94 30.957 144.925 30.957C145.909 30.957 146.784 30.72 147.55 30.246C148.316 29.7355 148.918 29.0245 149.355 28.1129C149.793 27.1648 150.011 26.0527 150.011 24.7765C150.011 23.5003 149.793 22.4064 149.355 21.4948C148.918 20.5467 148.316 19.8357 147.55 19.3617C146.784 18.8512 145.909 18.5959 144.925 18.5959C143.94 18.5959 143.065 18.8512 142.299 19.3617C141.534 19.8357 140.932 20.5467 140.494 21.4948C140.057 22.4064 139.838 23.5003 139.838 24.7765ZM148.699 9.58493C147.605 9.58493 146.657 9.36615 145.855 8.92859C145.052 8.49103 144.305 8.05347 143.612 7.61591C142.956 7.17835 142.208 6.95957 141.37 6.95957C140.567 6.95957 139.984 7.17835 139.619 7.61591C139.255 8.01701 139.036 8.43634 138.963 8.8739C138.89 9.31146 138.854 9.54847 138.854 9.58493H133.329C133.329 9.11091 133.457 8.39987 133.712 7.45183C134.004 6.50378 134.46 5.5375 135.08 4.55299C135.7 3.53201 136.484 2.67512 137.432 1.98232C138.416 1.28952 139.583 0.943115 140.932 0.943115C142.135 0.943115 143.12 1.18013 143.886 1.65415C144.651 2.12817 145.362 2.6022 146.019 3.07622C146.711 3.51378 147.477 3.73256 148.316 3.73256C149.118 3.73256 149.701 3.51378 150.066 3.07622C150.467 2.63866 150.722 2.18287 150.832 1.70885C150.978 1.23482 151.051 0.979578 151.051 0.943115H156.52C156.52 1.27129 156.374 1.89116 156.083 2.80275C155.791 3.71433 155.335 4.69884 154.715 5.75628C154.095 6.77725 152.309 8.43633 152.309 8.43633C152.309 8.43633 150.121 9.58493 148.699 9.58493Z" fill="#FB5A47"/>
<path fill-rule="evenodd" clip-rule="evenodd" d="M157.567 15.3981C158.453 16.5224 159.144 17.7707 159.638 19.143C160.33 20.9297 160.677 22.8075 160.677 24.7765C160.677 26.7456 160.33 28.6234 159.638 30.4101C159.127 31.8 158.407 33.0795 157.477 34.2487C156.622 33.1708 155.937 31.9824 155.423 30.6836C154.73 28.9333 154.384 27.0919 154.384 25.1594C154.384 22.3882 154.985 19.854 156.189 17.5568C156.586 16.7854 157.046 16.0658 157.567 15.3981Z" fill="#FDB8AE"/>
<path d="M121.905 39.5408C119.353 39.5408 117.092 39.1397 115.123 38.3375C113.19 37.5353 111.549 36.4414 110.2 35.0558C108.851 33.6337 107.83 32.0293 107.137 30.2426C106.445 28.4559 106.098 26.5781 106.098 24.6091C106.098 21.9837 106.7 19.5406 107.903 17.2799C109.143 14.9827 110.93 13.1413 113.263 11.7557C115.633 10.3701 118.514 9.67731 121.905 9.67731C125.369 9.67731 128.286 10.4066 130.656 11.8651C133.026 13.3236 134.795 15.2015 135.962 17.4987L125.843 20.5616C125.369 19.8688 124.786 19.3401 124.093 18.9755C123.437 18.6108 122.689 18.4285 121.85 18.4285C120.902 18.4285 120.045 18.6838 119.28 19.1942C118.514 19.6683 117.894 20.3611 117.42 21.2727C116.982 22.1842 116.764 23.2964 116.764 24.6091C116.764 25.8853 116.982 26.9974 117.42 27.9454C117.894 28.857 118.514 29.5681 119.28 30.0786C120.045 30.5526 120.902 30.7896 121.85 30.7896C122.434 30.7896 122.962 30.7167 123.436 30.5708C123.911 30.3885 124.348 30.1333 124.749 29.8051C125.187 29.4769 125.551 29.094 125.843 28.6565L135.962 31.7194C135.196 33.2509 134.138 34.6 132.789 35.7668C131.477 36.9337 129.909 37.8635 128.086 38.5563C126.299 39.2126 124.239 39.5408 121.905 39.5408ZM121.085 51.0268C120.064 51.0268 118.97 50.8627 117.803 50.5345C116.636 50.2428 115.469 49.787 114.302 49.1671L116.709 43.8617C117.11 44.2263 117.548 44.4816 118.022 44.6274C118.496 44.8098 118.933 44.9009 119.334 44.9009C119.991 44.9009 120.538 44.7186 120.975 44.354C121.413 43.9893 121.632 43.4606 121.632 42.7678C121.632 42.1479 121.431 41.5098 121.03 40.8535C120.629 40.2336 120.064 39.6137 119.334 38.9939L122.616 37.0248C124.002 38.0458 125.187 39.1762 126.171 40.4159C127.192 41.6557 127.703 43.1324 127.703 44.8462C127.703 46.4506 127.156 47.8727 126.062 49.1124C125.004 50.3886 123.345 51.0268 121.085 51.0268Z" fill="#FFCD07"/>
<path fill-rule="evenodd" clip-rule="evenodd" d="M133.271 35.3307C134.393 34.2674 135.29 33.0637 135.962 31.7195L129.983 29.9096C130.038 30.0772 130.096 30.2441 130.157 30.4102C130.85 32.1969 131.853 33.8013 133.165 35.2233C133.2 35.2593 133.236 35.2951 133.271 35.3307ZM130.111 19.2697C130.126 19.2274 130.142 19.1852 130.157 19.143C130.85 17.3198 131.853 15.7154 133.165 14.3298C133.258 14.2343 133.353 14.1401 133.449 14.0474C134.473 15.0675 135.311 16.2179 135.962 17.4987L130.111 19.2697Z" fill="#FFF5C2"/>
<path d="M92.8756 0.276611H104.799L117.16 39.1101H106.331L103.979 31.5075H93.6413L91.3441 39.1101H80.4598L92.8756 0.276611ZM102.283 24.3971L98.8373 10.7234L95.2275 24.3971H102.283Z" fill="#0076D6"/>
<path fill-rule="evenodd" clip-rule="evenodd" d="M109.472 14.9557L117.122 38.9893C116.425 38.8139 115.759 38.5967 115.123 38.3376C113.19 37.5354 111.549 36.4415 110.2 35.0559C108.851 33.6338 107.83 32.0294 107.137 30.2427C106.445 28.456 106.098 26.5782 106.098 24.6092C106.098 21.9838 106.7 19.5407 107.903 17.28C108.354 16.445 108.877 15.6703 109.472 14.9557Z" fill="#A1D3FF"/>
<path d="M86.2815 18.0354C84.1666 18.0354 82.2522 18.3818 80.5385 19.0746C78.8247 19.7309 77.5849 20.7155 76.8192 22.0281V39.2571H68.068V10.5422H76.1082V16.3399C77.0927 14.4073 78.3689 12.8941 79.9368 11.8002C81.5047 10.7063 83.1456 10.1411 84.8594 10.1046C85.2605 10.1046 85.5522 10.1046 85.7345 10.1046C85.9533 10.1046 86.1356 10.1228 86.2815 10.1593V18.0354Z" fill="#0076D6"/>
<path d="M56.5718 39.4861C54.1287 39.4861 51.9592 39.1032 50.0631 38.3375C48.167 37.5353 46.5444 36.4596 45.1952 35.1105C43.8825 33.7614 42.8798 32.2117 42.187 30.4614C41.4942 28.6747 41.1478 26.8151 41.1478 24.8825C41.1478 22.1113 41.7494 19.5953 42.9527 17.3346C44.1925 15.0374 45.961 13.196 48.2582 11.8104C50.5553 10.3883 53.3266 9.67731 56.5718 9.67731C59.817 9.67731 62.57 10.3701 64.8307 11.7557C67.1279 13.1413 68.8782 14.9645 70.0815 17.2252C71.2848 19.4495 71.8864 21.8743 71.8864 24.4997C71.8864 25.0102 71.8499 25.5206 71.777 26.0311C71.7406 26.5051 71.7041 26.9245 71.6676 27.2891H50.446C50.5553 28.5653 50.9017 29.641 51.4852 30.5161C52.105 31.3912 52.889 32.0658 53.837 32.5398C54.7851 32.9774 55.7878 33.1962 56.8453 33.1962C58.158 33.1962 59.3795 32.8862 60.5098 32.2664C61.6767 31.6465 62.4789 30.8078 62.9164 29.7504L70.3549 31.8288C69.6257 33.3238 68.5865 34.6547 67.2373 35.8215C65.9247 36.9519 64.3567 37.8453 62.5336 38.5016C60.7469 39.1579 58.7596 39.4861 56.5718 39.4861ZM50.2272 21.929H62.6976C62.5518 20.7257 62.2054 19.6865 61.6584 18.8114C61.1115 17.8998 60.3822 17.207 59.4706 16.733C58.5591 16.2225 57.5563 15.9672 56.4624 15.9672C55.332 15.9672 54.3111 16.2225 53.3995 16.733C52.5244 17.207 51.8133 17.8998 51.2664 18.8114C50.7194 19.6865 50.373 20.7257 50.2272 21.929Z" fill="#FB5A47"/>
<path fill-rule="evenodd" clip-rule="evenodd" d="M68.068 14.377L68.068 27.2891H71.6676C71.7041 26.9245 71.7406 26.5052 71.777 26.0311C71.8499 25.5207 71.8864 25.0102 71.8864 24.4997C71.8864 21.8743 71.2848 19.4495 70.0815 17.2252C69.5266 16.1828 68.8555 15.2333 68.068 14.377ZM68.068 31.1898L70.3549 31.8288C69.7832 33.001 69.0208 34.0723 68.068 35.0427L68.068 31.1898Z" fill="#FDB8AE"/>
<path d="M49.2119 37.4487C48.4097 37.7769 47.5163 38.1051 46.5318 38.4332C45.5838 38.7614 44.581 39.0167 43.5236 39.199C42.4661 39.4178 41.4269 39.5271 40.406 39.5271C38.9474 39.5271 37.5983 39.2901 36.3585 38.8161C35.1552 38.3056 34.189 37.4852 33.4597 36.3548C32.7669 35.2245 32.4205 33.7295 32.4205 31.8698V16.8834H28.7559V10.2653H32.4205V1.13123H41.1717V10.2653H47.0241V16.8834H41.1717V28.8616C41.1717 29.8097 41.4087 30.5025 41.8827 30.94C42.3568 31.3411 42.9584 31.5417 43.6877 31.5417C44.3075 31.5417 44.9639 31.4323 45.6567 31.2135C46.386 30.9947 47.0058 30.7577 47.5163 30.5025L49.2119 37.4487Z" fill="#0076D6"/>
<path fill-rule="evenodd" clip-rule="evenodd" d="M48.6617 37.6682C48.8496 37.595 49.033 37.5218 49.2119 37.4487L47.5163 30.5024C47.0058 30.7577 46.3859 30.9947 45.6567 31.2134C44.9639 31.4322 44.3075 31.5416 43.6877 31.5416C43.2754 31.5416 42.9039 31.4775 42.5733 31.3494C43.235 32.7404 44.109 33.9941 45.1952 35.1104C46.1993 36.1145 47.3548 36.9671 48.6617 37.6682ZM47.0241 12.6361C45.4569 13.7978 44.1843 15.2136 43.2065 16.8833H47.0241V12.6361ZM41.1717 23.9362C41.1558 24.2482 41.1478 24.5637 41.1478 24.8825C41.1478 25.1755 41.1558 25.4668 41.1717 25.7565V23.9362Z" fill="#A1D3FF"/>
<path d="M34.2118 39.1613H25.4606V23.0263C25.4606 21.1302 25.096 19.7628 24.3667 18.9242C23.6739 18.049 22.7441 17.6115 21.5772 17.6115C20.775 17.6115 19.9546 17.8303 19.116 18.2678C18.2773 18.7054 17.5116 19.307 16.8188 20.0728C16.1624 20.8385 15.6519 21.7136 15.2873 22.6981V39.1613H6.5361V10.4464H14.4122V15.2596C15.1415 14.1292 16.053 13.1629 17.1469 12.3608C18.2408 11.5586 19.4988 10.9569 20.9209 10.5558C22.343 10.1183 23.8927 9.89948 25.57 9.89948C27.4296 9.89948 28.9246 10.2459 30.055 10.9387C31.2218 11.595 32.0969 12.4701 32.6803 13.564C33.3002 14.6579 33.7013 15.843 33.8836 17.1192C34.1024 18.359 34.2118 19.5805 34.2118 20.7838V39.1613Z" fill="#FFCD07"/>
<path fill-rule="evenodd" clip-rule="evenodd" d="M34.2118 37.3227C33.938 37.0302 33.6873 36.7076 33.4597 36.3548C32.7669 35.2245 32.4205 33.7295 32.4205 31.8698V16.8834H28.7559V10.3457C29.2323 10.5022 29.6653 10.6999 30.055 10.9387C31.2218 11.5951 32.0969 12.4702 32.6803 13.5641C33.3002 14.658 33.7013 15.843 33.8836 17.1193C34.1024 18.359 34.2118 19.5805 34.2118 20.7838V37.3227Z" fill="#FFF5C2"/>
<path d="M0 39.1613V0.32782H8.96999V39.1613H0Z" fill="#7FB135"/>
<path fill-rule="evenodd" clip-rule="evenodd" d="M8.97001 10.4465V39.1613H6.5361V10.4465H8.97001Z" fill="#C5EE93"/>
</svg>
